M48
; DRILL file {KiCad 5.1.0-unknown-ee14da3~82~ubuntu16.04.1} date Mon 08 Apr 2019 19:12:14 CEST
; FORMAT={-:-/ absolute / inch / decimal}
; #@! TF.CreationDate,2019-04-08T19:12:14+02:00
; #@! TF.GenerationSoftware,Kicad,Pcbnew,5.1.0-unknown-ee14da3~82~ubuntu16.04.1
; #@! TF.FileFunction,Plated,1,2,PTH
FMAT,2
INCH
T1C0.0157
T2C0.0197
T3C0.0394
T4C0.0906
T5C0.1063
%
G90
G05
T1
X7.275Y-4.275
X7.33Y-4.23
X7.38Y-4.125
X7.5Y-3.85
X7.5Y-4.55
X7.5748Y-4.126
X7.66Y-4.07
X7.675Y-4.125
X7.675Y-4.3
X7.6785Y-3.968
X7.8715Y-4.643
X7.875Y-3.85
X7.875Y-4.525
X7.995Y-4.275
T2
X7.9703Y-3.91
X7.9936Y-3.8536
X7.9936Y-3.9664
X8.05Y-3.8303
X8.05Y-3.9897
X8.1064Y-3.8536
X8.1064Y-3.9664
X8.1297Y-3.91
X7.0453Y-4.575
X7.0686Y-4.5186
X7.0686Y-4.6314
X7.125Y-4.4953
X7.125Y-4.6547
X7.1814Y-4.5186
X7.1814Y-4.6314
X7.2047Y-4.575
X7.0453Y-3.91
X7.0686Y-3.8536
X7.0686Y-3.9664
X7.125Y-3.8303
X7.125Y-3.9897
X7.1814Y-3.8536
X7.1814Y-3.9664
X7.2047Y-3.91
X7.9703Y-4.575
X7.9936Y-4.5186
X7.9936Y-4.6314
X8.05Y-4.4953
X8.05Y-4.6547
X8.1064Y-4.5186
X8.1064Y-4.6314
X8.1297Y-4.575
T3
X8.225Y-4.0951
X8.225Y-4.1951
X8.225Y-4.275
X8.225Y-4.375
X7.07Y-4.09
X7.07Y-4.19
X7.07Y-4.29
X7.07Y-4.39
X8.255Y-3.845
X8.355Y-3.845
T4
X8.3301Y-3.975
X8.3301Y-4.5152
T5
X8.05Y-4.575
X8.05Y-3.91
X7.125Y-4.575
X7.125Y-3.91
T0
M30
