G04 #@! TF.GenerationSoftware,KiCad,Pcbnew,5.1.0-unknown-ee14da3~82~ubuntu16.04.1*
G04 #@! TF.CreationDate,2019-04-08T19:12:28+02:00*
G04 #@! TF.ProjectId,UsbAmpel,55736241-6d70-4656-9c2e-6b696361645f,rev?*
G04 #@! TF.SameCoordinates,Original*
G04 #@! TF.FileFunction,Soldermask,Top*
G04 #@! TF.FilePolarity,Negative*
%FSLAX46Y46*%
G04 Gerber Fmt 4.6, Leading zero omitted, Abs format (unit mm)*
G04 Created by KiCad (PCBNEW 5.1.0-unknown-ee14da3~82~ubuntu16.04.1) date 2019-04-08 19:12:28*
%MOMM*%
%LPD*%
G04 APERTURE LIST*
%ADD10C,0.100000*%
G04 APERTURE END LIST*
D10*
G36*
X205006694Y-113506860D02*
G01*
X205272437Y-113559719D01*
X205773087Y-113767095D01*
X205953561Y-113887684D01*
X206223660Y-114068158D01*
X206606842Y-114451340D01*
X206787316Y-114721439D01*
X206907905Y-114901913D01*
X207115281Y-115402563D01*
X207168141Y-115668307D01*
X207221000Y-115934049D01*
X207221000Y-116475951D01*
X207185186Y-116656000D01*
X207115281Y-117007437D01*
X206907905Y-117508087D01*
X206851521Y-117592471D01*
X206606842Y-117958660D01*
X206223660Y-118341842D01*
X205960774Y-118517496D01*
X205773087Y-118642905D01*
X205272437Y-118850281D01*
X205006693Y-118903141D01*
X204740951Y-118956000D01*
X204199049Y-118956000D01*
X203933307Y-118903141D01*
X203667563Y-118850281D01*
X203166913Y-118642905D01*
X202979226Y-118517496D01*
X202716340Y-118341842D01*
X202333158Y-117958660D01*
X202088479Y-117592471D01*
X202032095Y-117508087D01*
X201824719Y-117007437D01*
X201754814Y-116656000D01*
X201719000Y-116475951D01*
X201719000Y-115934049D01*
X201771859Y-115668307D01*
X201824719Y-115402563D01*
X202032095Y-114901913D01*
X202152684Y-114721439D01*
X202333158Y-114451340D01*
X202716340Y-114068158D01*
X202986439Y-113887684D01*
X203166913Y-113767095D01*
X203667563Y-113559719D01*
X203933306Y-113506860D01*
X204199049Y-113454000D01*
X204740951Y-113454000D01*
X205006694Y-113506860D01*
X205006694Y-113506860D01*
G37*
G36*
X181511694Y-113506860D02*
G01*
X181777437Y-113559719D01*
X182278087Y-113767095D01*
X182458561Y-113887684D01*
X182728660Y-114068158D01*
X183111842Y-114451340D01*
X183292316Y-114721439D01*
X183412905Y-114901913D01*
X183620281Y-115402563D01*
X183673141Y-115668307D01*
X183726000Y-115934049D01*
X183726000Y-116475951D01*
X183690186Y-116656000D01*
X183620281Y-117007437D01*
X183412905Y-117508087D01*
X183356521Y-117592471D01*
X183111842Y-117958660D01*
X182728660Y-118341842D01*
X182465774Y-118517496D01*
X182278087Y-118642905D01*
X181777437Y-118850281D01*
X181511693Y-118903141D01*
X181245951Y-118956000D01*
X180704049Y-118956000D01*
X180438307Y-118903141D01*
X180172563Y-118850281D01*
X179671913Y-118642905D01*
X179484226Y-118517496D01*
X179221340Y-118341842D01*
X178838158Y-117958660D01*
X178593479Y-117592471D01*
X178537095Y-117508087D01*
X178329719Y-117007437D01*
X178259814Y-116656000D01*
X178224000Y-116475951D01*
X178224000Y-115934049D01*
X178276859Y-115668307D01*
X178329719Y-115402563D01*
X178537095Y-114901913D01*
X178657684Y-114721439D01*
X178838158Y-114451340D01*
X179221340Y-114068158D01*
X179491439Y-113887684D01*
X179671913Y-113767095D01*
X180172563Y-113559719D01*
X180438306Y-113506860D01*
X180704049Y-113454000D01*
X181245951Y-113454000D01*
X181511694Y-113506860D01*
X181511694Y-113506860D01*
G37*
G36*
X187208000Y-118656000D02*
G01*
X185306000Y-118656000D01*
X185306000Y-117454000D01*
X187208000Y-117454000D01*
X187208000Y-118656000D01*
X187208000Y-118656000D01*
G37*
G36*
X193408000Y-118656000D02*
G01*
X191506000Y-118656000D01*
X191506000Y-117454000D01*
X193408000Y-117454000D01*
X193408000Y-118656000D01*
X193408000Y-118656000D01*
G37*
G36*
X211887585Y-113163802D02*
G01*
X212037410Y-113193604D01*
X212319674Y-113310521D01*
X212573705Y-113480259D01*
X212789741Y-113696295D01*
X212959479Y-113950326D01*
X213076396Y-114232590D01*
X213136000Y-114532240D01*
X213136000Y-114837760D01*
X213076396Y-115137410D01*
X212959479Y-115419674D01*
X212789741Y-115673705D01*
X212573705Y-115889741D01*
X212319674Y-116059479D01*
X212037410Y-116176396D01*
X211887585Y-116206198D01*
X211737761Y-116236000D01*
X211432239Y-116236000D01*
X211282415Y-116206198D01*
X211132590Y-116176396D01*
X210850326Y-116059479D01*
X210596295Y-115889741D01*
X210380259Y-115673705D01*
X210210521Y-115419674D01*
X210093604Y-115137410D01*
X210034000Y-114837760D01*
X210034000Y-114532240D01*
X210093604Y-114232590D01*
X210210521Y-113950326D01*
X210380259Y-113696295D01*
X210596295Y-113480259D01*
X210850326Y-113310521D01*
X211132590Y-113193604D01*
X211282415Y-113163802D01*
X211432239Y-113134000D01*
X211737761Y-113134000D01*
X211887585Y-113163802D01*
X211887585Y-113163802D01*
G37*
G36*
X193408000Y-114956000D02*
G01*
X191506000Y-114956000D01*
X191506000Y-113754000D01*
X193408000Y-113754000D01*
X193408000Y-114956000D01*
X193408000Y-114956000D01*
G37*
G36*
X187208000Y-114956000D02*
G01*
X185306000Y-114956000D01*
X185306000Y-113754000D01*
X187208000Y-113754000D01*
X187208000Y-114956000D01*
X187208000Y-114956000D01*
G37*
G36*
X179688443Y-110611519D02*
G01*
X179754627Y-110618037D01*
X179924466Y-110669557D01*
X180080991Y-110753222D01*
X180116729Y-110782552D01*
X180218186Y-110865814D01*
X180301448Y-110967271D01*
X180330778Y-111003009D01*
X180414443Y-111159534D01*
X180465963Y-111329373D01*
X180483359Y-111506000D01*
X180465963Y-111682627D01*
X180414443Y-111852466D01*
X180330778Y-112008991D01*
X180301448Y-112044729D01*
X180218186Y-112146186D01*
X180116729Y-112229448D01*
X180080991Y-112258778D01*
X179924466Y-112342443D01*
X179754627Y-112393963D01*
X179688443Y-112400481D01*
X179622260Y-112407000D01*
X179533740Y-112407000D01*
X179467557Y-112400481D01*
X179401373Y-112393963D01*
X179231534Y-112342443D01*
X179075009Y-112258778D01*
X179039271Y-112229448D01*
X178937814Y-112146186D01*
X178854552Y-112044729D01*
X178825222Y-112008991D01*
X178741557Y-111852466D01*
X178690037Y-111682627D01*
X178672641Y-111506000D01*
X178690037Y-111329373D01*
X178741557Y-111159534D01*
X178825222Y-111003009D01*
X178854552Y-110967271D01*
X178937814Y-110865814D01*
X179039271Y-110782552D01*
X179075009Y-110753222D01*
X179231534Y-110669557D01*
X179401373Y-110618037D01*
X179467557Y-110611519D01*
X179533740Y-110605000D01*
X179622260Y-110605000D01*
X179688443Y-110611519D01*
X179688443Y-110611519D01*
G37*
G36*
X206541000Y-112383500D02*
G01*
X204939000Y-112383500D01*
X204939000Y-111136500D01*
X206541000Y-111136500D01*
X206541000Y-112383500D01*
X206541000Y-112383500D01*
G37*
G36*
X209716000Y-111926000D02*
G01*
X208114000Y-111926000D01*
X208114000Y-110324000D01*
X209716000Y-110324000D01*
X209716000Y-111926000D01*
X209716000Y-111926000D01*
G37*
G36*
X200471000Y-111801000D02*
G01*
X199569000Y-111801000D01*
X199569000Y-110399000D01*
X200471000Y-110399000D01*
X200471000Y-111801000D01*
X200471000Y-111801000D01*
G37*
G36*
X195391000Y-111801000D02*
G01*
X194489000Y-111801000D01*
X194489000Y-110399000D01*
X195391000Y-110399000D01*
X195391000Y-111801000D01*
X195391000Y-111801000D01*
G37*
G36*
X197941000Y-111801000D02*
G01*
X197039000Y-111801000D01*
X197039000Y-110399000D01*
X197941000Y-110399000D01*
X197941000Y-111801000D01*
X197941000Y-111801000D01*
G37*
G36*
X199211000Y-111801000D02*
G01*
X198309000Y-111801000D01*
X198309000Y-110399000D01*
X199211000Y-110399000D01*
X199211000Y-111801000D01*
X199211000Y-111801000D01*
G37*
G36*
X201751000Y-111801000D02*
G01*
X200849000Y-111801000D01*
X200849000Y-110399000D01*
X201751000Y-110399000D01*
X201751000Y-111801000D01*
X201751000Y-111801000D01*
G37*
G36*
X194131000Y-111801000D02*
G01*
X193229000Y-111801000D01*
X193229000Y-110399000D01*
X194131000Y-110399000D01*
X194131000Y-111801000D01*
X194131000Y-111801000D01*
G37*
G36*
X192851000Y-111801000D02*
G01*
X191949000Y-111801000D01*
X191949000Y-110399000D01*
X192851000Y-110399000D01*
X192851000Y-111801000D01*
X192851000Y-111801000D01*
G37*
G36*
X196661000Y-111801000D02*
G01*
X195759000Y-111801000D01*
X195759000Y-110399000D01*
X196661000Y-110399000D01*
X196661000Y-111801000D01*
X196661000Y-111801000D01*
G37*
G36*
X206541000Y-110298500D02*
G01*
X204939000Y-110298500D01*
X204939000Y-109051500D01*
X206541000Y-109051500D01*
X206541000Y-110298500D01*
X206541000Y-110298500D01*
G37*
G36*
X189523000Y-110124000D02*
G01*
X187921000Y-110124000D01*
X187921000Y-108877000D01*
X189523000Y-108877000D01*
X189523000Y-110124000D01*
X189523000Y-110124000D01*
G37*
G36*
X186983000Y-109949000D02*
G01*
X185381000Y-109949000D01*
X185381000Y-108877000D01*
X186983000Y-108877000D01*
X186983000Y-109949000D01*
X186983000Y-109949000D01*
G37*
G36*
X179688443Y-108071519D02*
G01*
X179754627Y-108078037D01*
X179924466Y-108129557D01*
X180080991Y-108213222D01*
X180116729Y-108242552D01*
X180218186Y-108325814D01*
X180301448Y-108427271D01*
X180330778Y-108463009D01*
X180414443Y-108619534D01*
X180465963Y-108789373D01*
X180483359Y-108966000D01*
X180465963Y-109142627D01*
X180414443Y-109312466D01*
X180330778Y-109468991D01*
X180301448Y-109504729D01*
X180218186Y-109606186D01*
X180116729Y-109689448D01*
X180080991Y-109718778D01*
X179924466Y-109802443D01*
X179754627Y-109853963D01*
X179688443Y-109860481D01*
X179622260Y-109867000D01*
X179533740Y-109867000D01*
X179467557Y-109860481D01*
X179401373Y-109853963D01*
X179231534Y-109802443D01*
X179075009Y-109718778D01*
X179039271Y-109689448D01*
X178937814Y-109606186D01*
X178854552Y-109504729D01*
X178825222Y-109468991D01*
X178741557Y-109312466D01*
X178690037Y-109142627D01*
X178672641Y-108966000D01*
X178690037Y-108789373D01*
X178741557Y-108619534D01*
X178825222Y-108463009D01*
X178854552Y-108427271D01*
X178937814Y-108325814D01*
X179039271Y-108242552D01*
X179075009Y-108213222D01*
X179231534Y-108129557D01*
X179401373Y-108078037D01*
X179467557Y-108071519D01*
X179533740Y-108065000D01*
X179622260Y-108065000D01*
X179688443Y-108071519D01*
X179688443Y-108071519D01*
G37*
G36*
X209148642Y-107814781D02*
G01*
X209294414Y-107875162D01*
X209294416Y-107875163D01*
X209425608Y-107962822D01*
X209537178Y-108074392D01*
X209574038Y-108129558D01*
X209624838Y-108205586D01*
X209685219Y-108351358D01*
X209716000Y-108506107D01*
X209716000Y-108663893D01*
X209685219Y-108818642D01*
X209661046Y-108877000D01*
X209624837Y-108964416D01*
X209537178Y-109095608D01*
X209425608Y-109207178D01*
X209294416Y-109294837D01*
X209294415Y-109294838D01*
X209294414Y-109294838D01*
X209148642Y-109355219D01*
X208993893Y-109386000D01*
X208836107Y-109386000D01*
X208681358Y-109355219D01*
X208535586Y-109294838D01*
X208535585Y-109294838D01*
X208535584Y-109294837D01*
X208404392Y-109207178D01*
X208292822Y-109095608D01*
X208205163Y-108964416D01*
X208168954Y-108877000D01*
X208144781Y-108818642D01*
X208114000Y-108663893D01*
X208114000Y-108506107D01*
X208144781Y-108351358D01*
X208205162Y-108205586D01*
X208255962Y-108129558D01*
X208292822Y-108074392D01*
X208404392Y-107962822D01*
X208535584Y-107875163D01*
X208535586Y-107875162D01*
X208681358Y-107814781D01*
X208836107Y-107784000D01*
X208993893Y-107784000D01*
X209148642Y-107814781D01*
X209148642Y-107814781D01*
G37*
G36*
X186983000Y-108039000D02*
G01*
X185381000Y-108039000D01*
X185381000Y-106967000D01*
X186983000Y-106967000D01*
X186983000Y-108039000D01*
X186983000Y-108039000D01*
G37*
G36*
X189523000Y-108039000D02*
G01*
X187921000Y-108039000D01*
X187921000Y-106792000D01*
X189523000Y-106792000D01*
X189523000Y-108039000D01*
X189523000Y-108039000D01*
G37*
G36*
X209148642Y-105784781D02*
G01*
X209294414Y-105845162D01*
X209294416Y-105845163D01*
X209425608Y-105932822D01*
X209537178Y-106044392D01*
X209624837Y-106175584D01*
X209624838Y-106175586D01*
X209685219Y-106321358D01*
X209716000Y-106476107D01*
X209716000Y-106633893D01*
X209685219Y-106788642D01*
X209627085Y-106928989D01*
X209624837Y-106934416D01*
X209537178Y-107065608D01*
X209425608Y-107177178D01*
X209294416Y-107264837D01*
X209294415Y-107264838D01*
X209294414Y-107264838D01*
X209148642Y-107325219D01*
X208993893Y-107356000D01*
X208836107Y-107356000D01*
X208681358Y-107325219D01*
X208535586Y-107264838D01*
X208535585Y-107264838D01*
X208535584Y-107264837D01*
X208404392Y-107177178D01*
X208292822Y-107065608D01*
X208205163Y-106934416D01*
X208202915Y-106928989D01*
X208144781Y-106788642D01*
X208114000Y-106633893D01*
X208114000Y-106476107D01*
X208144781Y-106321358D01*
X208205162Y-106175586D01*
X208205163Y-106175584D01*
X208292822Y-106044392D01*
X208404392Y-105932822D01*
X208535584Y-105845163D01*
X208535586Y-105845162D01*
X208681358Y-105784781D01*
X208836107Y-105754000D01*
X208993893Y-105754000D01*
X209148642Y-105784781D01*
X209148642Y-105784781D01*
G37*
G36*
X179688443Y-105531519D02*
G01*
X179754627Y-105538037D01*
X179924466Y-105589557D01*
X180080991Y-105673222D01*
X180116729Y-105702552D01*
X180218186Y-105785814D01*
X180301448Y-105887271D01*
X180330778Y-105923009D01*
X180414443Y-106079534D01*
X180465963Y-106249373D01*
X180483359Y-106426000D01*
X180465963Y-106602627D01*
X180414443Y-106772466D01*
X180330778Y-106928991D01*
X180301448Y-106964729D01*
X180218186Y-107066186D01*
X180116729Y-107149448D01*
X180080991Y-107178778D01*
X179924466Y-107262443D01*
X179754627Y-107313963D01*
X179688442Y-107320482D01*
X179622260Y-107327000D01*
X179533740Y-107327000D01*
X179467558Y-107320482D01*
X179401373Y-107313963D01*
X179231534Y-107262443D01*
X179075009Y-107178778D01*
X179039271Y-107149448D01*
X178937814Y-107066186D01*
X178854552Y-106964729D01*
X178825222Y-106928991D01*
X178741557Y-106772466D01*
X178690037Y-106602627D01*
X178672641Y-106426000D01*
X178690037Y-106249373D01*
X178741557Y-106079534D01*
X178825222Y-105923009D01*
X178854552Y-105887271D01*
X178937814Y-105785814D01*
X179039271Y-105702552D01*
X179075009Y-105673222D01*
X179231534Y-105589557D01*
X179401373Y-105538037D01*
X179467558Y-105531518D01*
X179533740Y-105525000D01*
X179622260Y-105525000D01*
X179688443Y-105531519D01*
X179688443Y-105531519D01*
G37*
G36*
X190261000Y-105576000D02*
G01*
X189014000Y-105576000D01*
X189014000Y-103974000D01*
X190261000Y-103974000D01*
X190261000Y-105576000D01*
X190261000Y-105576000D01*
G37*
G36*
X188176000Y-105576000D02*
G01*
X186929000Y-105576000D01*
X186929000Y-103974000D01*
X188176000Y-103974000D01*
X188176000Y-105576000D01*
X188176000Y-105576000D01*
G37*
G36*
X192851000Y-105501000D02*
G01*
X191949000Y-105501000D01*
X191949000Y-104099000D01*
X192851000Y-104099000D01*
X192851000Y-105501000D01*
X192851000Y-105501000D01*
G37*
G36*
X195391000Y-105501000D02*
G01*
X194489000Y-105501000D01*
X194489000Y-104099000D01*
X195391000Y-104099000D01*
X195391000Y-105501000D01*
X195391000Y-105501000D01*
G37*
G36*
X194131000Y-105501000D02*
G01*
X193229000Y-105501000D01*
X193229000Y-104099000D01*
X194131000Y-104099000D01*
X194131000Y-105501000D01*
X194131000Y-105501000D01*
G37*
G36*
X196661000Y-105501000D02*
G01*
X195759000Y-105501000D01*
X195759000Y-104099000D01*
X196661000Y-104099000D01*
X196661000Y-105501000D01*
X196661000Y-105501000D01*
G37*
G36*
X197941000Y-105501000D02*
G01*
X197039000Y-105501000D01*
X197039000Y-104099000D01*
X197941000Y-104099000D01*
X197941000Y-105501000D01*
X197941000Y-105501000D01*
G37*
G36*
X199211000Y-105501000D02*
G01*
X198309000Y-105501000D01*
X198309000Y-104099000D01*
X199211000Y-104099000D01*
X199211000Y-105501000D01*
X199211000Y-105501000D01*
G37*
G36*
X200471000Y-105501000D02*
G01*
X199569000Y-105501000D01*
X199569000Y-104099000D01*
X200471000Y-104099000D01*
X200471000Y-105501000D01*
X200471000Y-105501000D01*
G37*
G36*
X201751000Y-105501000D02*
G01*
X200849000Y-105501000D01*
X200849000Y-104099000D01*
X201751000Y-104099000D01*
X201751000Y-105501000D01*
X201751000Y-105501000D01*
G37*
G36*
X209148642Y-103244781D02*
G01*
X209294414Y-103305162D01*
X209294416Y-103305163D01*
X209425608Y-103392822D01*
X209537178Y-103504392D01*
X209624837Y-103635584D01*
X209624838Y-103635586D01*
X209685219Y-103781358D01*
X209716000Y-103936107D01*
X209716000Y-104093893D01*
X209685219Y-104248642D01*
X209624838Y-104394414D01*
X209624837Y-104394416D01*
X209537178Y-104525608D01*
X209425608Y-104637178D01*
X209294416Y-104724837D01*
X209294415Y-104724838D01*
X209294414Y-104724838D01*
X209148642Y-104785219D01*
X208993893Y-104816000D01*
X208836107Y-104816000D01*
X208681358Y-104785219D01*
X208535586Y-104724838D01*
X208535585Y-104724838D01*
X208535584Y-104724837D01*
X208404392Y-104637178D01*
X208292822Y-104525608D01*
X208205163Y-104394416D01*
X208205162Y-104394414D01*
X208144781Y-104248642D01*
X208114000Y-104093893D01*
X208114000Y-103936107D01*
X208144781Y-103781358D01*
X208205162Y-103635586D01*
X208205163Y-103635584D01*
X208292822Y-103504392D01*
X208404392Y-103392822D01*
X208535584Y-103305163D01*
X208535586Y-103305162D01*
X208681358Y-103244781D01*
X208836107Y-103214000D01*
X208993893Y-103214000D01*
X209148642Y-103244781D01*
X209148642Y-103244781D01*
G37*
G36*
X180479000Y-104787000D02*
G01*
X178677000Y-104787000D01*
X178677000Y-102985000D01*
X180479000Y-102985000D01*
X180479000Y-104787000D01*
X180479000Y-104787000D01*
G37*
G36*
X211887585Y-99443802D02*
G01*
X212037410Y-99473604D01*
X212319674Y-99590521D01*
X212573705Y-99760259D01*
X212789741Y-99976295D01*
X212959479Y-100230326D01*
X213076396Y-100512590D01*
X213097182Y-100617087D01*
X213136000Y-100812239D01*
X213136000Y-101117761D01*
X213120260Y-101196891D01*
X213076396Y-101417410D01*
X212959479Y-101699674D01*
X212789741Y-101953705D01*
X212573705Y-102169741D01*
X212319674Y-102339479D01*
X212037410Y-102456396D01*
X211887585Y-102486198D01*
X211737761Y-102516000D01*
X211432239Y-102516000D01*
X211282415Y-102486198D01*
X211132590Y-102456396D01*
X210850326Y-102339479D01*
X210596295Y-102169741D01*
X210380259Y-101953705D01*
X210210521Y-101699674D01*
X210093604Y-101417410D01*
X210049740Y-101196891D01*
X210034000Y-101117761D01*
X210034000Y-100812239D01*
X210072818Y-100617087D01*
X210093604Y-100512590D01*
X210210521Y-100230326D01*
X210380259Y-99976295D01*
X210596295Y-99760259D01*
X210850326Y-99590521D01*
X211132590Y-99473604D01*
X211282415Y-99443802D01*
X211432239Y-99414000D01*
X211737761Y-99414000D01*
X211887585Y-99443802D01*
X211887585Y-99443802D01*
G37*
G36*
X181511694Y-96615860D02*
G01*
X181777437Y-96668719D01*
X182278087Y-96876095D01*
X182458561Y-96996684D01*
X182728660Y-97177158D01*
X183111842Y-97560340D01*
X183292316Y-97830439D01*
X183412905Y-98010913D01*
X183620281Y-98511563D01*
X183620281Y-98511564D01*
X183726000Y-99043049D01*
X183726000Y-99584951D01*
X183691129Y-99760259D01*
X183620281Y-100116437D01*
X183412905Y-100617087D01*
X183356521Y-100701471D01*
X183111842Y-101067660D01*
X182728660Y-101450842D01*
X182465774Y-101626496D01*
X182278087Y-101751905D01*
X181777437Y-101959281D01*
X181511693Y-102012141D01*
X181245951Y-102065000D01*
X180704049Y-102065000D01*
X180438306Y-102012140D01*
X180172563Y-101959281D01*
X179671913Y-101751905D01*
X179484226Y-101626496D01*
X179221340Y-101450842D01*
X178838158Y-101067660D01*
X178593479Y-100701471D01*
X178537095Y-100617087D01*
X178329719Y-100116437D01*
X178258871Y-99760259D01*
X178224000Y-99584951D01*
X178224000Y-99043049D01*
X178329719Y-98511564D01*
X178329719Y-98511563D01*
X178537095Y-98010913D01*
X178657684Y-97830439D01*
X178838158Y-97560340D01*
X179221340Y-97177158D01*
X179491439Y-96996684D01*
X179671913Y-96876095D01*
X180172563Y-96668719D01*
X180438306Y-96615860D01*
X180704049Y-96563000D01*
X181245951Y-96563000D01*
X181511694Y-96615860D01*
X181511694Y-96615860D01*
G37*
G36*
X205006694Y-96615860D02*
G01*
X205272437Y-96668719D01*
X205773087Y-96876095D01*
X205953561Y-96996684D01*
X206223660Y-97177158D01*
X206606842Y-97560340D01*
X206787316Y-97830439D01*
X206907905Y-98010913D01*
X207115281Y-98511563D01*
X207115281Y-98511564D01*
X207221000Y-99043049D01*
X207221000Y-99584951D01*
X207186129Y-99760259D01*
X207115281Y-100116437D01*
X206907905Y-100617087D01*
X206851521Y-100701471D01*
X206606842Y-101067660D01*
X206223660Y-101450842D01*
X205960774Y-101626496D01*
X205773087Y-101751905D01*
X205272437Y-101959281D01*
X205006693Y-102012141D01*
X204740951Y-102065000D01*
X204199049Y-102065000D01*
X203933306Y-102012140D01*
X203667563Y-101959281D01*
X203166913Y-101751905D01*
X202979226Y-101626496D01*
X202716340Y-101450842D01*
X202333158Y-101067660D01*
X202088479Y-100701471D01*
X202032095Y-100617087D01*
X201824719Y-100116437D01*
X201753871Y-99760259D01*
X201719000Y-99584951D01*
X201719000Y-99043049D01*
X201824719Y-98511564D01*
X201824719Y-98511563D01*
X202032095Y-98010913D01*
X202152684Y-97830439D01*
X202333158Y-97560340D01*
X202716340Y-97177158D01*
X202986439Y-96996684D01*
X203166913Y-96876095D01*
X203667563Y-96668719D01*
X203933306Y-96615860D01*
X204199049Y-96563000D01*
X204740951Y-96563000D01*
X205006694Y-96615860D01*
X205006694Y-96615860D01*
G37*
G36*
X200267500Y-101893000D02*
G01*
X199020500Y-101893000D01*
X199020500Y-100291000D01*
X200267500Y-100291000D01*
X200267500Y-101893000D01*
X200267500Y-101893000D01*
G37*
G36*
X198182500Y-101893000D02*
G01*
X196935500Y-101893000D01*
X196935500Y-100291000D01*
X198182500Y-100291000D01*
X198182500Y-101893000D01*
X198182500Y-101893000D01*
G37*
G36*
X191578500Y-101512000D02*
G01*
X190331500Y-101512000D01*
X190331500Y-99910000D01*
X191578500Y-99910000D01*
X191578500Y-101512000D01*
X191578500Y-101512000D01*
G37*
G36*
X193663500Y-101512000D02*
G01*
X192416500Y-101512000D01*
X192416500Y-99910000D01*
X193663500Y-99910000D01*
X193663500Y-101512000D01*
X193663500Y-101512000D01*
G37*
G36*
X191578500Y-99099000D02*
G01*
X190331500Y-99099000D01*
X190331500Y-97497000D01*
X191578500Y-97497000D01*
X191578500Y-99099000D01*
X191578500Y-99099000D01*
G37*
G36*
X193663500Y-99099000D02*
G01*
X192416500Y-99099000D01*
X192416500Y-97497000D01*
X193663500Y-97497000D01*
X193663500Y-99099000D01*
X193663500Y-99099000D01*
G37*
G36*
X210578000Y-98564000D02*
G01*
X208776000Y-98564000D01*
X208776000Y-96762000D01*
X210578000Y-96762000D01*
X210578000Y-98564000D01*
X210578000Y-98564000D01*
G37*
G36*
X212327442Y-96768518D02*
G01*
X212393627Y-96775037D01*
X212563466Y-96826557D01*
X212719991Y-96910222D01*
X212754674Y-96938686D01*
X212857186Y-97022814D01*
X212940448Y-97124271D01*
X212969778Y-97160009D01*
X213053443Y-97316534D01*
X213104963Y-97486373D01*
X213122359Y-97663000D01*
X213104963Y-97839627D01*
X213053443Y-98009466D01*
X212969778Y-98165991D01*
X212940448Y-98201729D01*
X212857186Y-98303186D01*
X212755729Y-98386448D01*
X212719991Y-98415778D01*
X212563466Y-98499443D01*
X212393627Y-98550963D01*
X212327442Y-98557482D01*
X212261260Y-98564000D01*
X212172740Y-98564000D01*
X212106558Y-98557482D01*
X212040373Y-98550963D01*
X211870534Y-98499443D01*
X211714009Y-98415778D01*
X211678271Y-98386448D01*
X211576814Y-98303186D01*
X211493552Y-98201729D01*
X211464222Y-98165991D01*
X211380557Y-98009466D01*
X211329037Y-97839627D01*
X211311641Y-97663000D01*
X211329037Y-97486373D01*
X211380557Y-97316534D01*
X211464222Y-97160009D01*
X211493552Y-97124271D01*
X211576814Y-97022814D01*
X211679326Y-96938686D01*
X211714009Y-96910222D01*
X211870534Y-96826557D01*
X212040373Y-96775037D01*
X212106558Y-96768518D01*
X212172740Y-96762000D01*
X212261260Y-96762000D01*
X212327442Y-96768518D01*
X212327442Y-96768518D01*
G37*
M02*
