G04 #@! TF.GenerationSoftware,KiCad,Pcbnew,5.1.0-unknown-ee14da3~82~ubuntu16.04.1*
G04 #@! TF.CreationDate,2019-04-08T19:12:28+02:00*
G04 #@! TF.ProjectId,UsbAmpel,55736241-6d70-4656-9c2e-6b696361645f,rev?*
G04 #@! TF.SameCoordinates,Original*
G04 #@! TF.FileFunction,Legend,Top*
G04 #@! TF.FilePolarity,Positive*
%FSLAX46Y46*%
G04 Gerber Fmt 4.6, Leading zero omitted, Abs format (unit mm)*
G04 Created by KiCad (PCBNEW 5.1.0-unknown-ee14da3~82~ubuntu16.04.1) date 2019-04-08 19:12:28*
%MOMM*%
%LPD*%
G04 APERTURE LIST*
%ADD10C,0.150000*%
%ADD11C,0.120000*%
G04 APERTURE END LIST*
D10*
X181578380Y-108418380D02*
X182197428Y-108418380D01*
X181864095Y-108799333D01*
X182006952Y-108799333D01*
X182102190Y-108846952D01*
X182149809Y-108894571D01*
X182197428Y-108989809D01*
X182197428Y-109227904D01*
X182149809Y-109323142D01*
X182102190Y-109370761D01*
X182006952Y-109418380D01*
X181721238Y-109418380D01*
X181626000Y-109370761D01*
X181578380Y-109323142D01*
X182626000Y-109323142D02*
X182673619Y-109370761D01*
X182626000Y-109418380D01*
X182578380Y-109370761D01*
X182626000Y-109323142D01*
X182626000Y-109418380D01*
X183626000Y-109418380D02*
X183054571Y-109418380D01*
X183340285Y-109418380D02*
X183340285Y-108418380D01*
X183245047Y-108561238D01*
X183149809Y-108656476D01*
X183054571Y-108704095D01*
X181578380Y-105878380D02*
X182197428Y-105878380D01*
X181864095Y-106259333D01*
X182006952Y-106259333D01*
X182102190Y-106306952D01*
X182149809Y-106354571D01*
X182197428Y-106449809D01*
X182197428Y-106687904D01*
X182149809Y-106783142D01*
X182102190Y-106830761D01*
X182006952Y-106878380D01*
X181721238Y-106878380D01*
X181626000Y-106830761D01*
X181578380Y-106783142D01*
X182626000Y-106783142D02*
X182673619Y-106830761D01*
X182626000Y-106878380D01*
X182578380Y-106830761D01*
X182626000Y-106783142D01*
X182626000Y-106878380D01*
X183292666Y-105878380D02*
X183387904Y-105878380D01*
X183483142Y-105926000D01*
X183530761Y-105973619D01*
X183578380Y-106068857D01*
X183626000Y-106259333D01*
X183626000Y-106497428D01*
X183578380Y-106687904D01*
X183530761Y-106783142D01*
X183483142Y-106830761D01*
X183387904Y-106878380D01*
X183292666Y-106878380D01*
X183197428Y-106830761D01*
X183149809Y-106783142D01*
X183102190Y-106687904D01*
X183054571Y-106497428D01*
X183054571Y-106259333D01*
X183102190Y-106068857D01*
X183149809Y-105973619D01*
X183197428Y-105926000D01*
X183292666Y-105878380D01*
X181546666Y-103338380D02*
X181880000Y-104338380D01*
X182213333Y-103338380D01*
X183118095Y-104243142D02*
X183070476Y-104290761D01*
X182927619Y-104338380D01*
X182832380Y-104338380D01*
X182689523Y-104290761D01*
X182594285Y-104195523D01*
X182546666Y-104100285D01*
X182499047Y-103909809D01*
X182499047Y-103766952D01*
X182546666Y-103576476D01*
X182594285Y-103481238D01*
X182689523Y-103386000D01*
X182832380Y-103338380D01*
X182927619Y-103338380D01*
X183070476Y-103386000D01*
X183118095Y-103433619D01*
X184118095Y-104243142D02*
X184070476Y-104290761D01*
X183927619Y-104338380D01*
X183832380Y-104338380D01*
X183689523Y-104290761D01*
X183594285Y-104195523D01*
X183546666Y-104100285D01*
X183499047Y-103909809D01*
X183499047Y-103766952D01*
X183546666Y-103576476D01*
X183594285Y-103481238D01*
X183689523Y-103386000D01*
X183832380Y-103338380D01*
X183927619Y-103338380D01*
X184070476Y-103386000D01*
X184118095Y-103433619D01*
X182118095Y-111006000D02*
X182022857Y-110958380D01*
X181880000Y-110958380D01*
X181737142Y-111006000D01*
X181641904Y-111101238D01*
X181594285Y-111196476D01*
X181546666Y-111386952D01*
X181546666Y-111529809D01*
X181594285Y-111720285D01*
X181641904Y-111815523D01*
X181737142Y-111910761D01*
X181880000Y-111958380D01*
X181975238Y-111958380D01*
X182118095Y-111910761D01*
X182165714Y-111863142D01*
X182165714Y-111529809D01*
X181975238Y-111529809D01*
X182594285Y-111958380D02*
X182594285Y-110958380D01*
X183165714Y-111958380D01*
X183165714Y-110958380D01*
X183641904Y-111958380D02*
X183641904Y-110958380D01*
X183880000Y-110958380D01*
X184022857Y-111006000D01*
X184118095Y-111101238D01*
X184165714Y-111196476D01*
X184213333Y-111386952D01*
X184213333Y-111529809D01*
X184165714Y-111720285D01*
X184118095Y-111815523D01*
X184022857Y-111910761D01*
X183880000Y-111958380D01*
X183641904Y-111958380D01*
X210320047Y-109037380D02*
X210320047Y-108037380D01*
X210558142Y-108037380D01*
X210701000Y-108085000D01*
X210796238Y-108180238D01*
X210843857Y-108275476D01*
X210891476Y-108465952D01*
X210891476Y-108608809D01*
X210843857Y-108799285D01*
X210796238Y-108894523D01*
X210701000Y-108989761D01*
X210558142Y-109037380D01*
X210320047Y-109037380D01*
X211320047Y-108656428D02*
X212081952Y-108656428D01*
X210320047Y-107005380D02*
X210320047Y-106005380D01*
X210558142Y-106005380D01*
X210701000Y-106053000D01*
X210796238Y-106148238D01*
X210843857Y-106243476D01*
X210891476Y-106433952D01*
X210891476Y-106576809D01*
X210843857Y-106767285D01*
X210796238Y-106862523D01*
X210701000Y-106957761D01*
X210558142Y-107005380D01*
X210320047Y-107005380D01*
X211320047Y-106624428D02*
X212081952Y-106624428D01*
X211701000Y-107005380D02*
X211701000Y-106243476D01*
X210375666Y-110704380D02*
X210709000Y-111704380D01*
X211042333Y-110704380D01*
X211947095Y-111609142D02*
X211899476Y-111656761D01*
X211756619Y-111704380D01*
X211661380Y-111704380D01*
X211518523Y-111656761D01*
X211423285Y-111561523D01*
X211375666Y-111466285D01*
X211328047Y-111275809D01*
X211328047Y-111132952D01*
X211375666Y-110942476D01*
X211423285Y-110847238D01*
X211518523Y-110752000D01*
X211661380Y-110704380D01*
X211756619Y-110704380D01*
X211899476Y-110752000D01*
X211947095Y-110799619D01*
X212947095Y-111609142D02*
X212899476Y-111656761D01*
X212756619Y-111704380D01*
X212661380Y-111704380D01*
X212518523Y-111656761D01*
X212423285Y-111561523D01*
X212375666Y-111466285D01*
X212328047Y-111275809D01*
X212328047Y-111132952D01*
X212375666Y-110942476D01*
X212423285Y-110847238D01*
X212518523Y-110752000D01*
X212661380Y-110704380D01*
X212756619Y-110704380D01*
X212899476Y-110752000D01*
X212947095Y-110799619D01*
X210820095Y-103513000D02*
X210724857Y-103465380D01*
X210582000Y-103465380D01*
X210439142Y-103513000D01*
X210343904Y-103608238D01*
X210296285Y-103703476D01*
X210248666Y-103893952D01*
X210248666Y-104036809D01*
X210296285Y-104227285D01*
X210343904Y-104322523D01*
X210439142Y-104417761D01*
X210582000Y-104465380D01*
X210677238Y-104465380D01*
X210820095Y-104417761D01*
X210867714Y-104370142D01*
X210867714Y-104036809D01*
X210677238Y-104036809D01*
X211296285Y-104465380D02*
X211296285Y-103465380D01*
X211867714Y-104465380D01*
X211867714Y-103465380D01*
X212343904Y-104465380D02*
X212343904Y-103465380D01*
X212582000Y-103465380D01*
X212724857Y-103513000D01*
X212820095Y-103608238D01*
X212867714Y-103703476D01*
X212915333Y-103893952D01*
X212915333Y-104036809D01*
X212867714Y-104227285D01*
X212820095Y-104322523D01*
X212724857Y-104417761D01*
X212582000Y-104465380D01*
X212343904Y-104465380D01*
D11*
X191135000Y-111125000D02*
G75*
G03X191135000Y-111125000I-635000J0D01*
G01*
X192147500Y-100001000D02*
X191847500Y-100001000D01*
X192147500Y-101421000D02*
X191847500Y-101421000D01*
X192147500Y-97588000D02*
X191847500Y-97588000D01*
X192147500Y-99008000D02*
X191847500Y-99008000D01*
X190807000Y-113505000D02*
X191257000Y-113955000D01*
X192057000Y-115205000D02*
X192057000Y-117205000D01*
X191257000Y-118455000D02*
X190807000Y-118905000D01*
X190807000Y-118905000D02*
X187907000Y-118905000D01*
X187907000Y-118905000D02*
X187457000Y-118455000D01*
X186657000Y-117205000D02*
X186657000Y-115205000D01*
X187457000Y-113955000D02*
X187907000Y-113505000D01*
X187907000Y-113505000D02*
X190807000Y-113505000D01*
X178248000Y-102556000D02*
X179578000Y-102556000D01*
X178248000Y-103886000D02*
X178248000Y-102556000D01*
X178248000Y-105156000D02*
X180908000Y-105156000D01*
X180908000Y-105156000D02*
X180908000Y-112836000D01*
X178248000Y-105156000D02*
X178248000Y-112836000D01*
X178248000Y-112836000D02*
X180908000Y-112836000D01*
X208347000Y-98993000D02*
X208347000Y-97663000D01*
X209677000Y-98993000D02*
X208347000Y-98993000D01*
X210947000Y-98993000D02*
X210947000Y-96333000D01*
X210947000Y-96333000D02*
X213547000Y-96333000D01*
X210947000Y-98993000D02*
X213547000Y-98993000D01*
X213547000Y-98993000D02*
X213547000Y-96333000D01*
X202250000Y-110350000D02*
X202250000Y-105550000D01*
X191450000Y-110350000D02*
X191450000Y-105550000D01*
X191850000Y-110350000D02*
X191850000Y-111750000D01*
X191450000Y-110350000D02*
X191850000Y-110350000D01*
X189432000Y-108608000D02*
X189432000Y-108308000D01*
X188012000Y-108608000D02*
X188012000Y-108308000D01*
X198751500Y-100382000D02*
X198451500Y-100382000D01*
X198751500Y-101802000D02*
X198451500Y-101802000D01*
X185172000Y-106758000D02*
X185172000Y-109458000D01*
X187192000Y-106758000D02*
X185172000Y-106758000D01*
X187192000Y-109458000D02*
X187192000Y-106758000D01*
X213265000Y-115065000D02*
X221865000Y-115065000D01*
X213065000Y-100075000D02*
X221865000Y-100075000D01*
X207775000Y-100075000D02*
X207775000Y-115065000D01*
X207775000Y-115065000D02*
X209895000Y-115065000D01*
X207775000Y-100075000D02*
X210105000Y-100075000D01*
X207415000Y-111125000D02*
X206915000Y-111625000D01*
X206915000Y-111625000D02*
X206915000Y-110625000D01*
X206915000Y-110625000D02*
X207415000Y-111125000D01*
X205030000Y-110567500D02*
X205030000Y-110867500D01*
X206450000Y-110567500D02*
X206450000Y-110867500D01*
X188745000Y-104065000D02*
X188445000Y-104065000D01*
X188745000Y-105485000D02*
X188445000Y-105485000D01*
D10*
X188936333Y-101195142D02*
X188888714Y-101242761D01*
X188745857Y-101290380D01*
X188650619Y-101290380D01*
X188507761Y-101242761D01*
X188412523Y-101147523D01*
X188364904Y-101052285D01*
X188317285Y-100861809D01*
X188317285Y-100718952D01*
X188364904Y-100528476D01*
X188412523Y-100433238D01*
X188507761Y-100338000D01*
X188650619Y-100290380D01*
X188745857Y-100290380D01*
X188888714Y-100338000D01*
X188936333Y-100385619D01*
X189793476Y-100623714D02*
X189793476Y-101290380D01*
X189555380Y-100242761D02*
X189317285Y-100957047D01*
X189936333Y-100957047D01*
X194659333Y-101163380D02*
X194087904Y-101163380D01*
X194373619Y-101163380D02*
X194373619Y-100163380D01*
X194278380Y-100306238D01*
X194183142Y-100401476D01*
X194087904Y-100449095D01*
X195087904Y-100496714D02*
X195087904Y-101496714D01*
X195564095Y-101020523D02*
X195611714Y-101115761D01*
X195706952Y-101163380D01*
X195087904Y-101020523D02*
X195135523Y-101115761D01*
X195230761Y-101163380D01*
X195421238Y-101163380D01*
X195516476Y-101115761D01*
X195564095Y-101020523D01*
X195564095Y-100496714D01*
X196468857Y-100639571D02*
X196135523Y-100639571D01*
X196135523Y-101163380D02*
X196135523Y-100163380D01*
X196611714Y-100163380D01*
X188936333Y-98655142D02*
X188888714Y-98702761D01*
X188745857Y-98750380D01*
X188650619Y-98750380D01*
X188507761Y-98702761D01*
X188412523Y-98607523D01*
X188364904Y-98512285D01*
X188317285Y-98321809D01*
X188317285Y-98178952D01*
X188364904Y-97988476D01*
X188412523Y-97893238D01*
X188507761Y-97798000D01*
X188650619Y-97750380D01*
X188745857Y-97750380D01*
X188888714Y-97798000D01*
X188936333Y-97845619D01*
X189269666Y-97750380D02*
X189888714Y-97750380D01*
X189555380Y-98131333D01*
X189698238Y-98131333D01*
X189793476Y-98178952D01*
X189841095Y-98226571D01*
X189888714Y-98321809D01*
X189888714Y-98559904D01*
X189841095Y-98655142D01*
X189793476Y-98702761D01*
X189698238Y-98750380D01*
X189412523Y-98750380D01*
X189317285Y-98702761D01*
X189269666Y-98655142D01*
X194667380Y-98750380D02*
X194095952Y-98750380D01*
X194381666Y-98750380D02*
X194381666Y-97750380D01*
X194286428Y-97893238D01*
X194191190Y-97988476D01*
X194095952Y-98036095D01*
X195286428Y-97750380D02*
X195381666Y-97750380D01*
X195476904Y-97798000D01*
X195524523Y-97845619D01*
X195572142Y-97940857D01*
X195619761Y-98131333D01*
X195619761Y-98369428D01*
X195572142Y-98559904D01*
X195524523Y-98655142D01*
X195476904Y-98702761D01*
X195381666Y-98750380D01*
X195286428Y-98750380D01*
X195191190Y-98702761D01*
X195143571Y-98655142D01*
X195095952Y-98559904D01*
X195048333Y-98369428D01*
X195048333Y-98131333D01*
X195095952Y-97940857D01*
X195143571Y-97845619D01*
X195191190Y-97798000D01*
X195286428Y-97750380D01*
X196238809Y-97750380D02*
X196334047Y-97750380D01*
X196429285Y-97798000D01*
X196476904Y-97845619D01*
X196524523Y-97940857D01*
X196572142Y-98131333D01*
X196572142Y-98369428D01*
X196524523Y-98559904D01*
X196476904Y-98655142D01*
X196429285Y-98702761D01*
X196334047Y-98750380D01*
X196238809Y-98750380D01*
X196143571Y-98702761D01*
X196095952Y-98655142D01*
X196048333Y-98559904D01*
X196000714Y-98369428D01*
X196000714Y-98131333D01*
X196048333Y-97940857D01*
X196095952Y-97845619D01*
X196143571Y-97798000D01*
X196238809Y-97750380D01*
X197000714Y-98083714D02*
X197000714Y-98750380D01*
X197000714Y-98178952D02*
X197048333Y-98131333D01*
X197143571Y-98083714D01*
X197286428Y-98083714D01*
X197381666Y-98131333D01*
X197429285Y-98226571D01*
X197429285Y-98750380D01*
X198238809Y-98226571D02*
X197905476Y-98226571D01*
X197905476Y-98750380D02*
X197905476Y-97750380D01*
X198381666Y-97750380D01*
X191857380Y-108711904D02*
X192666904Y-108711904D01*
X192762142Y-108664285D01*
X192809761Y-108616666D01*
X192857380Y-108521428D01*
X192857380Y-108330952D01*
X192809761Y-108235714D01*
X192762142Y-108188095D01*
X192666904Y-108140476D01*
X191857380Y-108140476D01*
X192857380Y-107140476D02*
X192857380Y-107711904D01*
X192857380Y-107426190D02*
X191857380Y-107426190D01*
X192000238Y-107521428D01*
X192095476Y-107616666D01*
X192143095Y-107711904D01*
X189174380Y-111545666D02*
X188698190Y-111879000D01*
X189174380Y-112117095D02*
X188174380Y-112117095D01*
X188174380Y-111736142D01*
X188222000Y-111640904D01*
X188269619Y-111593285D01*
X188364857Y-111545666D01*
X188507714Y-111545666D01*
X188602952Y-111593285D01*
X188650571Y-111640904D01*
X188698190Y-111736142D01*
X188698190Y-112117095D01*
X188269619Y-111164714D02*
X188222000Y-111117095D01*
X188174380Y-111021857D01*
X188174380Y-110783761D01*
X188222000Y-110688523D01*
X188269619Y-110640904D01*
X188364857Y-110593285D01*
X188460095Y-110593285D01*
X188602952Y-110640904D01*
X189174380Y-111212333D01*
X189174380Y-110593285D01*
X191024380Y-109148476D02*
X191024380Y-109719904D01*
X191024380Y-109434190D02*
X190024380Y-109434190D01*
X190167238Y-109529428D01*
X190262476Y-109624666D01*
X190310095Y-109719904D01*
X191024380Y-108719904D02*
X190024380Y-108719904D01*
X190643428Y-108624666D02*
X191024380Y-108338952D01*
X190357714Y-108338952D02*
X190738666Y-108719904D01*
X191024380Y-107958000D02*
X191024380Y-107719904D01*
X190833904Y-107719904D01*
X190786285Y-107815142D01*
X190691047Y-107910380D01*
X190548190Y-107958000D01*
X190310095Y-107958000D01*
X190167238Y-107910380D01*
X190072000Y-107815142D01*
X190024380Y-107672285D01*
X190024380Y-107481809D01*
X190072000Y-107338952D01*
X190167238Y-107243714D01*
X190310095Y-107196095D01*
X190548190Y-107196095D01*
X190691047Y-107243714D01*
X190786285Y-107338952D01*
X190833904Y-107434190D01*
X191024380Y-107434190D01*
X191024380Y-107196095D01*
X195794333Y-103195380D02*
X195461000Y-102719190D01*
X195222904Y-103195380D02*
X195222904Y-102195380D01*
X195603857Y-102195380D01*
X195699095Y-102243000D01*
X195746714Y-102290619D01*
X195794333Y-102385857D01*
X195794333Y-102528714D01*
X195746714Y-102623952D01*
X195699095Y-102671571D01*
X195603857Y-102719190D01*
X195222904Y-102719190D01*
X196746714Y-103195380D02*
X196175285Y-103195380D01*
X196461000Y-103195380D02*
X196461000Y-102195380D01*
X196365761Y-102338238D01*
X196270523Y-102433476D01*
X196175285Y-102481095D01*
X198858333Y-103195380D02*
X198286904Y-103195380D01*
X198572619Y-103195380D02*
X198572619Y-102195380D01*
X198477380Y-102338238D01*
X198382142Y-102433476D01*
X198286904Y-102481095D01*
X199477380Y-102195380D02*
X199572619Y-102195380D01*
X199667857Y-102243000D01*
X199715476Y-102290619D01*
X199763095Y-102385857D01*
X199810714Y-102576333D01*
X199810714Y-102814428D01*
X199763095Y-103004904D01*
X199715476Y-103100142D01*
X199667857Y-103147761D01*
X199572619Y-103195380D01*
X199477380Y-103195380D01*
X199382142Y-103147761D01*
X199334523Y-103100142D01*
X199286904Y-103004904D01*
X199239285Y-102814428D01*
X199239285Y-102576333D01*
X199286904Y-102385857D01*
X199334523Y-102290619D01*
X199382142Y-102243000D01*
X199477380Y-102195380D01*
X200239285Y-103195380D02*
X200239285Y-102195380D01*
X200334523Y-102814428D02*
X200620238Y-103195380D01*
X200620238Y-102528714D02*
X200239285Y-102909666D01*
X201001190Y-103195380D02*
X201239285Y-103195380D01*
X201239285Y-103004904D01*
X201144047Y-102957285D01*
X201048809Y-102862047D01*
X201001190Y-102719190D01*
X201001190Y-102481095D01*
X201048809Y-102338238D01*
X201144047Y-102243000D01*
X201286904Y-102195380D01*
X201477380Y-102195380D01*
X201620238Y-102243000D01*
X201715476Y-102338238D01*
X201763095Y-102481095D01*
X201763095Y-102719190D01*
X201715476Y-102862047D01*
X201620238Y-102957285D01*
X201525000Y-103004904D01*
X201525000Y-103195380D01*
X201763095Y-103195380D01*
X186634380Y-112117095D02*
X185634380Y-112117095D01*
X185634380Y-111879000D01*
X185682000Y-111736142D01*
X185777238Y-111640904D01*
X185872476Y-111593285D01*
X186062952Y-111545666D01*
X186205809Y-111545666D01*
X186396285Y-111593285D01*
X186491523Y-111640904D01*
X186586761Y-111736142D01*
X186634380Y-111879000D01*
X186634380Y-112117095D01*
X186634380Y-110593285D02*
X186634380Y-111164714D01*
X186634380Y-110879000D02*
X185634380Y-110879000D01*
X185777238Y-110974238D01*
X185872476Y-111069476D01*
X185920095Y-111164714D01*
X206097142Y-107989666D02*
X206144761Y-108037285D01*
X206192380Y-108180142D01*
X206192380Y-108275380D01*
X206144761Y-108418238D01*
X206049523Y-108513476D01*
X205954285Y-108561095D01*
X205763809Y-108608714D01*
X205620952Y-108608714D01*
X205430476Y-108561095D01*
X205335238Y-108513476D01*
X205240000Y-108418238D01*
X205192380Y-108275380D01*
X205192380Y-108180142D01*
X205240000Y-108037285D01*
X205287619Y-107989666D01*
X205287619Y-107608714D02*
X205240000Y-107561095D01*
X205192380Y-107465857D01*
X205192380Y-107227761D01*
X205240000Y-107132523D01*
X205287619Y-107084904D01*
X205382857Y-107037285D01*
X205478095Y-107037285D01*
X205620952Y-107084904D01*
X206192380Y-107656333D01*
X206192380Y-107037285D01*
X204541380Y-111275619D02*
X204541380Y-111847047D01*
X204541380Y-111561333D02*
X203541380Y-111561333D01*
X203684238Y-111656571D01*
X203779476Y-111751809D01*
X203827095Y-111847047D01*
X203541380Y-110656571D02*
X203541380Y-110561333D01*
X203589000Y-110466095D01*
X203636619Y-110418476D01*
X203731857Y-110370857D01*
X203922333Y-110323238D01*
X204160428Y-110323238D01*
X204350904Y-110370857D01*
X204446142Y-110418476D01*
X204493761Y-110466095D01*
X204541380Y-110561333D01*
X204541380Y-110656571D01*
X204493761Y-110751809D01*
X204446142Y-110799428D01*
X204350904Y-110847047D01*
X204160428Y-110894666D01*
X203922333Y-110894666D01*
X203731857Y-110847047D01*
X203636619Y-110799428D01*
X203589000Y-110751809D01*
X203541380Y-110656571D01*
X203541380Y-109704190D02*
X203541380Y-109608952D01*
X203589000Y-109513714D01*
X203636619Y-109466095D01*
X203731857Y-109418476D01*
X203922333Y-109370857D01*
X204160428Y-109370857D01*
X204350904Y-109418476D01*
X204446142Y-109466095D01*
X204493761Y-109513714D01*
X204541380Y-109608952D01*
X204541380Y-109704190D01*
X204493761Y-109799428D01*
X204446142Y-109847047D01*
X204350904Y-109894666D01*
X204160428Y-109942285D01*
X203922333Y-109942285D01*
X203731857Y-109894666D01*
X203636619Y-109847047D01*
X203589000Y-109799428D01*
X203541380Y-109704190D01*
X203874714Y-108942285D02*
X204541380Y-108942285D01*
X203969952Y-108942285D02*
X203922333Y-108894666D01*
X203874714Y-108799428D01*
X203874714Y-108656571D01*
X203922333Y-108561333D01*
X204017571Y-108513714D01*
X204541380Y-108513714D01*
X204017571Y-107704190D02*
X204017571Y-108037523D01*
X204541380Y-108037523D02*
X203541380Y-108037523D01*
X203541380Y-107561333D01*
X185634333Y-105132142D02*
X185586714Y-105179761D01*
X185443857Y-105227380D01*
X185348619Y-105227380D01*
X185205761Y-105179761D01*
X185110523Y-105084523D01*
X185062904Y-104989285D01*
X185015285Y-104798809D01*
X185015285Y-104655952D01*
X185062904Y-104465476D01*
X185110523Y-104370238D01*
X185205761Y-104275000D01*
X185348619Y-104227380D01*
X185443857Y-104227380D01*
X185586714Y-104275000D01*
X185634333Y-104322619D01*
X186586714Y-105227380D02*
X186015285Y-105227380D01*
X186301000Y-105227380D02*
X186301000Y-104227380D01*
X186205761Y-104370238D01*
X186110523Y-104465476D01*
X186015285Y-104513095D01*
X187047380Y-103322380D02*
X186475952Y-103322380D01*
X186761666Y-103322380D02*
X186761666Y-102322380D01*
X186666428Y-102465238D01*
X186571190Y-102560476D01*
X186475952Y-102608095D01*
X187666428Y-102322380D02*
X187761666Y-102322380D01*
X187856904Y-102370000D01*
X187904523Y-102417619D01*
X187952142Y-102512857D01*
X187999761Y-102703333D01*
X187999761Y-102941428D01*
X187952142Y-103131904D01*
X187904523Y-103227142D01*
X187856904Y-103274761D01*
X187761666Y-103322380D01*
X187666428Y-103322380D01*
X187571190Y-103274761D01*
X187523571Y-103227142D01*
X187475952Y-103131904D01*
X187428333Y-102941428D01*
X187428333Y-102703333D01*
X187475952Y-102512857D01*
X187523571Y-102417619D01*
X187571190Y-102370000D01*
X187666428Y-102322380D01*
X188618809Y-102322380D02*
X188714047Y-102322380D01*
X188809285Y-102370000D01*
X188856904Y-102417619D01*
X188904523Y-102512857D01*
X188952142Y-102703333D01*
X188952142Y-102941428D01*
X188904523Y-103131904D01*
X188856904Y-103227142D01*
X188809285Y-103274761D01*
X188714047Y-103322380D01*
X188618809Y-103322380D01*
X188523571Y-103274761D01*
X188475952Y-103227142D01*
X188428333Y-103131904D01*
X188380714Y-102941428D01*
X188380714Y-102703333D01*
X188428333Y-102512857D01*
X188475952Y-102417619D01*
X188523571Y-102370000D01*
X188618809Y-102322380D01*
X189380714Y-102655714D02*
X189380714Y-103322380D01*
X189380714Y-102750952D02*
X189428333Y-102703333D01*
X189523571Y-102655714D01*
X189666428Y-102655714D01*
X189761666Y-102703333D01*
X189809285Y-102798571D01*
X189809285Y-103322380D01*
X190618809Y-102798571D02*
X190285476Y-102798571D01*
X190285476Y-103322380D02*
X190285476Y-102322380D01*
X190761666Y-102322380D01*
M02*
