G04 #@! TF.GenerationSoftware,KiCad,Pcbnew,5.1.0-unknown-ee14da3~82~ubuntu16.04.1*
G04 #@! TF.CreationDate,2019-04-08T19:12:28+02:00*
G04 #@! TF.ProjectId,UsbAmpel,55736241-6d70-4656-9c2e-6b696361645f,rev?*
G04 #@! TF.SameCoordinates,Original*
G04 #@! TF.FileFunction,Copper,L2,Bot*
G04 #@! TF.FilePolarity,Positive*
%FSLAX46Y46*%
G04 Gerber Fmt 4.6, Leading zero omitted, Abs format (unit mm)*
G04 Created by KiCad (PCBNEW 5.1.0-unknown-ee14da3~82~ubuntu16.04.1) date 2019-04-08 19:12:28*
%MOMM*%
%LPD*%
G04 APERTURE LIST*
%ADD10R,1.500000X1.000000*%
%ADD11C,0.800000*%
%ADD12C,5.400000*%
%ADD13O,1.700000X1.700000*%
%ADD14R,1.700000X1.700000*%
%ADD15C,3.000000*%
%ADD16R,1.500000X1.500000*%
%ADD17C,1.500000*%
%ADD18C,0.250000*%
%ADD19C,0.500000*%
%ADD20C,0.254000*%
G04 APERTURE END LIST*
D10*
X185510000Y-100787000D03*
X185510000Y-97587000D03*
X190410000Y-100787000D03*
X190410000Y-97587000D03*
X195035000Y-100787000D03*
X195035000Y-97587000D03*
X199935000Y-100787000D03*
X199935000Y-97587000D03*
D11*
X205901891Y-97882109D03*
X204470000Y-97289000D03*
X203038109Y-97882109D03*
X202445000Y-99314000D03*
X203038109Y-100745891D03*
X204470000Y-101339000D03*
X205901891Y-100745891D03*
X206495000Y-99314000D03*
D12*
X204470000Y-99314000D03*
D11*
X205901891Y-114773109D03*
X204470000Y-114180000D03*
X203038109Y-114773109D03*
X202445000Y-116205000D03*
X203038109Y-117636891D03*
X204470000Y-118230000D03*
X205901891Y-117636891D03*
X206495000Y-116205000D03*
D12*
X204470000Y-116205000D03*
D11*
X182406891Y-114773109D03*
X180975000Y-114180000D03*
X179543109Y-114773109D03*
X178950000Y-116205000D03*
X179543109Y-117636891D03*
X180975000Y-118230000D03*
X182406891Y-117636891D03*
X183000000Y-116205000D03*
D12*
X180975000Y-116205000D03*
D11*
X182406891Y-97882109D03*
X180975000Y-97289000D03*
X179543109Y-97882109D03*
X178950000Y-99314000D03*
X179543109Y-100745891D03*
X180975000Y-101339000D03*
X182406891Y-100745891D03*
X183000000Y-99314000D03*
D12*
X180975000Y-99314000D03*
D13*
X179578000Y-111506000D03*
X179578000Y-108966000D03*
X179578000Y-106426000D03*
D14*
X179578000Y-103886000D03*
D10*
X199935000Y-106096000D03*
X199935000Y-109296000D03*
X195035000Y-106096000D03*
X195035000Y-109296000D03*
X190410000Y-106096000D03*
X190410000Y-109296000D03*
X185510000Y-106096000D03*
X185510000Y-109296000D03*
X195035000Y-117932000D03*
X195035000Y-114732000D03*
X199935000Y-117932000D03*
X199935000Y-114732000D03*
D13*
X212217000Y-97663000D03*
D14*
X209677000Y-97663000D03*
D10*
X185510000Y-117932000D03*
X185510000Y-114732000D03*
X190410000Y-117932000D03*
X190410000Y-114732000D03*
D15*
X211585000Y-114685000D03*
X211585000Y-100965000D03*
D16*
X208915000Y-111125000D03*
D17*
X208915000Y-108585000D03*
X208915000Y-106555000D03*
X208915000Y-104015000D03*
D11*
X203073000Y-108585000D03*
X187452000Y-104775000D03*
X186182000Y-107442000D03*
X200025000Y-114935000D03*
X190500000Y-115570000D03*
X190500000Y-97790000D03*
X200025000Y-97790000D03*
X184785000Y-108585000D03*
X194945000Y-109220000D03*
X194945000Y-104775000D03*
X194564000Y-103378000D03*
X192400000Y-104800000D03*
X195035000Y-100787000D03*
X199935000Y-117932000D03*
D18*
X199935000Y-114845000D02*
X200025000Y-114935000D01*
X199935000Y-114732000D02*
X199935000Y-114845000D01*
X190410000Y-115480000D02*
X190500000Y-115570000D01*
X190410000Y-114732000D02*
X190410000Y-115480000D01*
X190410000Y-97700000D02*
X190500000Y-97790000D01*
X190410000Y-97587000D02*
X190410000Y-97700000D01*
X199935000Y-97700000D02*
X200025000Y-97790000D01*
X199935000Y-97587000D02*
X199935000Y-97700000D01*
X185496000Y-109296000D02*
X184785000Y-108585000D01*
X185510000Y-109296000D02*
X185496000Y-109296000D01*
X195021000Y-109296000D02*
X194945000Y-109220000D01*
X195035000Y-109296000D02*
X195021000Y-109296000D01*
X193142000Y-104800000D02*
X192400000Y-104800000D01*
X194564000Y-103378000D02*
X193142000Y-104800000D01*
D19*
X186760000Y-117932000D02*
X188487000Y-116205000D01*
X185510000Y-117932000D02*
X186760000Y-117932000D01*
X188487000Y-109019000D02*
X190410000Y-107096000D01*
X190410000Y-107096000D02*
X190410000Y-106096000D01*
X190410000Y-104437000D02*
X190410000Y-105096000D01*
X186760000Y-100787000D02*
X190410000Y-104437000D01*
X185510000Y-100787000D02*
X186760000Y-100787000D01*
X190410000Y-105096000D02*
X190410000Y-106096000D01*
X194719000Y-100787000D02*
X190410000Y-105096000D01*
X195035000Y-100787000D02*
X194719000Y-100787000D01*
X199935000Y-107096000D02*
X201549000Y-108710000D01*
X199935000Y-106096000D02*
X199935000Y-107096000D01*
X201549000Y-109742002D02*
X199023002Y-112268000D01*
X201549000Y-108710000D02*
X201549000Y-109742002D01*
X188487000Y-113138000D02*
X188487000Y-109019000D01*
X189357000Y-112268000D02*
X188487000Y-113138000D01*
X188487000Y-116205000D02*
X188487000Y-113138000D01*
X197866000Y-116351000D02*
X197866000Y-112268000D01*
X196285000Y-117932000D02*
X197866000Y-116351000D01*
X195035000Y-117932000D02*
X196285000Y-117932000D01*
X199023002Y-112268000D02*
X197866000Y-112268000D01*
X197866000Y-112268000D02*
X189357000Y-112268000D01*
D18*
X191585000Y-117932000D02*
X190410000Y-117932000D01*
X194785000Y-114732000D02*
X191585000Y-117932000D01*
X195035000Y-114732000D02*
X194785000Y-114732000D01*
X186510000Y-106096000D02*
X186944000Y-106530000D01*
X185510000Y-106096000D02*
X186510000Y-106096000D01*
X186944000Y-112548000D02*
X185510000Y-113982000D01*
X185510000Y-113982000D02*
X185510000Y-114732000D01*
X186944000Y-106530000D02*
X186944000Y-112548000D01*
X191410000Y-109296000D02*
X190410000Y-109296000D01*
X195035000Y-106096000D02*
X194785000Y-106096000D01*
X194785000Y-106096000D02*
X194455000Y-106426000D01*
X194455000Y-106426000D02*
X194280000Y-106426000D01*
X194280000Y-106426000D02*
X191410000Y-109296000D01*
X199935000Y-108546000D02*
X199935000Y-109296000D01*
X199935000Y-108546000D02*
X198374000Y-106985000D01*
X199935000Y-101537000D02*
X199935000Y-100787000D01*
X198374000Y-103098000D02*
X199935000Y-101537000D01*
X198374000Y-106985000D02*
X198374000Y-103098000D01*
X195035000Y-97587000D02*
X194767000Y-97587000D01*
X191567000Y-100787000D02*
X190410000Y-100787000D01*
X194767000Y-97587000D02*
X191567000Y-100787000D01*
D20*
G36*
X196981000Y-115984421D02*
G01*
X196090270Y-116875152D01*
X196029180Y-116842498D01*
X195909482Y-116806188D01*
X195785000Y-116793928D01*
X194285000Y-116793928D01*
X194160518Y-116806188D01*
X194040820Y-116842498D01*
X193930506Y-116901463D01*
X193833815Y-116980815D01*
X193754463Y-117077506D01*
X193695498Y-117187820D01*
X193659188Y-117307518D01*
X193646928Y-117432000D01*
X193646928Y-118432000D01*
X193659188Y-118556482D01*
X193695498Y-118676180D01*
X193718921Y-118720000D01*
X191726079Y-118720000D01*
X191749428Y-118676319D01*
X191877247Y-118637546D01*
X192009276Y-118566974D01*
X192125001Y-118472001D01*
X192148804Y-118442997D01*
X194721731Y-115870072D01*
X195785000Y-115870072D01*
X195909482Y-115857812D01*
X196029180Y-115821502D01*
X196139494Y-115762537D01*
X196236185Y-115683185D01*
X196315537Y-115586494D01*
X196374502Y-115476180D01*
X196410812Y-115356482D01*
X196423072Y-115232000D01*
X196423072Y-114232000D01*
X196410812Y-114107518D01*
X196374502Y-113987820D01*
X196315537Y-113877506D01*
X196236185Y-113780815D01*
X196139494Y-113701463D01*
X196029180Y-113642498D01*
X195909482Y-113606188D01*
X195785000Y-113593928D01*
X194285000Y-113593928D01*
X194160518Y-113606188D01*
X194040820Y-113642498D01*
X193930506Y-113701463D01*
X193833815Y-113780815D01*
X193754463Y-113877506D01*
X193695498Y-113987820D01*
X193659188Y-114107518D01*
X193646928Y-114232000D01*
X193646928Y-114795269D01*
X191528907Y-116913292D01*
X191514494Y-116901463D01*
X191404180Y-116842498D01*
X191284482Y-116806188D01*
X191160000Y-116793928D01*
X189660000Y-116793928D01*
X189535518Y-116806188D01*
X189415820Y-116842498D01*
X189305506Y-116901463D01*
X189208815Y-116980815D01*
X189129463Y-117077506D01*
X189070498Y-117187820D01*
X189034188Y-117307518D01*
X189021928Y-117432000D01*
X189021928Y-118432000D01*
X189034188Y-118556482D01*
X189070498Y-118676180D01*
X189093921Y-118720000D01*
X187163154Y-118720000D01*
X187254059Y-118671411D01*
X187388817Y-118560817D01*
X187416534Y-118527044D01*
X189082050Y-116861529D01*
X189115817Y-116833817D01*
X189145997Y-116797044D01*
X189226411Y-116699059D01*
X189308588Y-116545314D01*
X189308589Y-116545313D01*
X189359195Y-116378490D01*
X189372000Y-116248477D01*
X189372000Y-116248469D01*
X189376281Y-116205000D01*
X189372000Y-116161531D01*
X189372000Y-115798079D01*
X189415820Y-115821502D01*
X189535518Y-115857812D01*
X189660000Y-115870072D01*
X190124250Y-115867000D01*
X190283000Y-115708250D01*
X190283000Y-114859000D01*
X190537000Y-114859000D01*
X190537000Y-115708250D01*
X190695750Y-115867000D01*
X191160000Y-115870072D01*
X191284482Y-115857812D01*
X191404180Y-115821502D01*
X191514494Y-115762537D01*
X191611185Y-115683185D01*
X191690537Y-115586494D01*
X191749502Y-115476180D01*
X191785812Y-115356482D01*
X191798072Y-115232000D01*
X191795000Y-115017750D01*
X191636250Y-114859000D01*
X190537000Y-114859000D01*
X190283000Y-114859000D01*
X190263000Y-114859000D01*
X190263000Y-114605000D01*
X190283000Y-114605000D01*
X190283000Y-113755750D01*
X190537000Y-113755750D01*
X190537000Y-114605000D01*
X191636250Y-114605000D01*
X191795000Y-114446250D01*
X191798072Y-114232000D01*
X191785812Y-114107518D01*
X191749502Y-113987820D01*
X191690537Y-113877506D01*
X191611185Y-113780815D01*
X191514494Y-113701463D01*
X191404180Y-113642498D01*
X191284482Y-113606188D01*
X191160000Y-113593928D01*
X190695750Y-113597000D01*
X190537000Y-113755750D01*
X190283000Y-113755750D01*
X190124250Y-113597000D01*
X189660000Y-113593928D01*
X189535518Y-113606188D01*
X189415820Y-113642498D01*
X189372000Y-113665921D01*
X189372000Y-113504578D01*
X189723579Y-113153000D01*
X196981001Y-113153000D01*
X196981000Y-115984421D01*
X196981000Y-115984421D01*
G37*
X196981000Y-115984421D02*
X196090270Y-116875152D01*
X196029180Y-116842498D01*
X195909482Y-116806188D01*
X195785000Y-116793928D01*
X194285000Y-116793928D01*
X194160518Y-116806188D01*
X194040820Y-116842498D01*
X193930506Y-116901463D01*
X193833815Y-116980815D01*
X193754463Y-117077506D01*
X193695498Y-117187820D01*
X193659188Y-117307518D01*
X193646928Y-117432000D01*
X193646928Y-118432000D01*
X193659188Y-118556482D01*
X193695498Y-118676180D01*
X193718921Y-118720000D01*
X191726079Y-118720000D01*
X191749428Y-118676319D01*
X191877247Y-118637546D01*
X192009276Y-118566974D01*
X192125001Y-118472001D01*
X192148804Y-118442997D01*
X194721731Y-115870072D01*
X195785000Y-115870072D01*
X195909482Y-115857812D01*
X196029180Y-115821502D01*
X196139494Y-115762537D01*
X196236185Y-115683185D01*
X196315537Y-115586494D01*
X196374502Y-115476180D01*
X196410812Y-115356482D01*
X196423072Y-115232000D01*
X196423072Y-114232000D01*
X196410812Y-114107518D01*
X196374502Y-113987820D01*
X196315537Y-113877506D01*
X196236185Y-113780815D01*
X196139494Y-113701463D01*
X196029180Y-113642498D01*
X195909482Y-113606188D01*
X195785000Y-113593928D01*
X194285000Y-113593928D01*
X194160518Y-113606188D01*
X194040820Y-113642498D01*
X193930506Y-113701463D01*
X193833815Y-113780815D01*
X193754463Y-113877506D01*
X193695498Y-113987820D01*
X193659188Y-114107518D01*
X193646928Y-114232000D01*
X193646928Y-114795269D01*
X191528907Y-116913292D01*
X191514494Y-116901463D01*
X191404180Y-116842498D01*
X191284482Y-116806188D01*
X191160000Y-116793928D01*
X189660000Y-116793928D01*
X189535518Y-116806188D01*
X189415820Y-116842498D01*
X189305506Y-116901463D01*
X189208815Y-116980815D01*
X189129463Y-117077506D01*
X189070498Y-117187820D01*
X189034188Y-117307518D01*
X189021928Y-117432000D01*
X189021928Y-118432000D01*
X189034188Y-118556482D01*
X189070498Y-118676180D01*
X189093921Y-118720000D01*
X187163154Y-118720000D01*
X187254059Y-118671411D01*
X187388817Y-118560817D01*
X187416534Y-118527044D01*
X189082050Y-116861529D01*
X189115817Y-116833817D01*
X189145997Y-116797044D01*
X189226411Y-116699059D01*
X189308588Y-116545314D01*
X189308589Y-116545313D01*
X189359195Y-116378490D01*
X189372000Y-116248477D01*
X189372000Y-116248469D01*
X189376281Y-116205000D01*
X189372000Y-116161531D01*
X189372000Y-115798079D01*
X189415820Y-115821502D01*
X189535518Y-115857812D01*
X189660000Y-115870072D01*
X190124250Y-115867000D01*
X190283000Y-115708250D01*
X190283000Y-114859000D01*
X190537000Y-114859000D01*
X190537000Y-115708250D01*
X190695750Y-115867000D01*
X191160000Y-115870072D01*
X191284482Y-115857812D01*
X191404180Y-115821502D01*
X191514494Y-115762537D01*
X191611185Y-115683185D01*
X191690537Y-115586494D01*
X191749502Y-115476180D01*
X191785812Y-115356482D01*
X191798072Y-115232000D01*
X191795000Y-115017750D01*
X191636250Y-114859000D01*
X190537000Y-114859000D01*
X190283000Y-114859000D01*
X190263000Y-114859000D01*
X190263000Y-114605000D01*
X190283000Y-114605000D01*
X190283000Y-113755750D01*
X190537000Y-113755750D01*
X190537000Y-114605000D01*
X191636250Y-114605000D01*
X191795000Y-114446250D01*
X191798072Y-114232000D01*
X191785812Y-114107518D01*
X191749502Y-113987820D01*
X191690537Y-113877506D01*
X191611185Y-113780815D01*
X191514494Y-113701463D01*
X191404180Y-113642498D01*
X191284482Y-113606188D01*
X191160000Y-113593928D01*
X190695750Y-113597000D01*
X190537000Y-113755750D01*
X190283000Y-113755750D01*
X190124250Y-113597000D01*
X189660000Y-113593928D01*
X189535518Y-113606188D01*
X189415820Y-113642498D01*
X189372000Y-113665921D01*
X189372000Y-113504578D01*
X189723579Y-113153000D01*
X196981001Y-113153000D01*
X196981000Y-115984421D01*
G36*
X178809231Y-96968626D02*
G01*
X180975000Y-99134395D01*
X183140769Y-96968626D01*
X183024637Y-96799000D01*
X184193921Y-96799000D01*
X184170498Y-96842820D01*
X184134188Y-96962518D01*
X184121928Y-97087000D01*
X184121928Y-98087000D01*
X184134188Y-98211482D01*
X184170498Y-98331180D01*
X184229463Y-98441494D01*
X184308815Y-98538185D01*
X184405506Y-98617537D01*
X184515820Y-98676502D01*
X184635518Y-98712812D01*
X184760000Y-98725072D01*
X186260000Y-98725072D01*
X186384482Y-98712812D01*
X186504180Y-98676502D01*
X186614494Y-98617537D01*
X186711185Y-98538185D01*
X186790537Y-98441494D01*
X186849502Y-98331180D01*
X186885812Y-98211482D01*
X186898072Y-98087000D01*
X189021928Y-98087000D01*
X189034188Y-98211482D01*
X189070498Y-98331180D01*
X189129463Y-98441494D01*
X189208815Y-98538185D01*
X189305506Y-98617537D01*
X189415820Y-98676502D01*
X189535518Y-98712812D01*
X189660000Y-98725072D01*
X190124250Y-98722000D01*
X190283000Y-98563250D01*
X190283000Y-97714000D01*
X190537000Y-97714000D01*
X190537000Y-98563250D01*
X190695750Y-98722000D01*
X191160000Y-98725072D01*
X191284482Y-98712812D01*
X191404180Y-98676502D01*
X191514494Y-98617537D01*
X191611185Y-98538185D01*
X191690537Y-98441494D01*
X191749502Y-98331180D01*
X191785812Y-98211482D01*
X191798072Y-98087000D01*
X191795000Y-97872750D01*
X191636250Y-97714000D01*
X190537000Y-97714000D01*
X190283000Y-97714000D01*
X189183750Y-97714000D01*
X189025000Y-97872750D01*
X189021928Y-98087000D01*
X186898072Y-98087000D01*
X186898072Y-97087000D01*
X186885812Y-96962518D01*
X186849502Y-96842820D01*
X186826079Y-96799000D01*
X189093921Y-96799000D01*
X189070498Y-96842820D01*
X189034188Y-96962518D01*
X189021928Y-97087000D01*
X189025000Y-97301250D01*
X189183750Y-97460000D01*
X190283000Y-97460000D01*
X190283000Y-97440000D01*
X190537000Y-97440000D01*
X190537000Y-97460000D01*
X191636250Y-97460000D01*
X191795000Y-97301250D01*
X191798072Y-97087000D01*
X191785812Y-96962518D01*
X191749502Y-96842820D01*
X191726079Y-96799000D01*
X193718921Y-96799000D01*
X193695498Y-96842820D01*
X193659188Y-96962518D01*
X193646928Y-97087000D01*
X193646928Y-97632269D01*
X191519021Y-99760178D01*
X191514494Y-99756463D01*
X191404180Y-99697498D01*
X191284482Y-99661188D01*
X191160000Y-99648928D01*
X189660000Y-99648928D01*
X189535518Y-99661188D01*
X189415820Y-99697498D01*
X189305506Y-99756463D01*
X189208815Y-99835815D01*
X189129463Y-99932506D01*
X189070498Y-100042820D01*
X189034188Y-100162518D01*
X189021928Y-100287000D01*
X189021928Y-101287000D01*
X189034188Y-101411482D01*
X189070498Y-101531180D01*
X189129463Y-101641494D01*
X189208815Y-101738185D01*
X189305506Y-101817537D01*
X189415820Y-101876502D01*
X189535518Y-101912812D01*
X189660000Y-101925072D01*
X191160000Y-101925072D01*
X191284482Y-101912812D01*
X191404180Y-101876502D01*
X191514494Y-101817537D01*
X191611185Y-101738185D01*
X191690537Y-101641494D01*
X191749502Y-101531180D01*
X191751287Y-101525295D01*
X191859247Y-101492546D01*
X191991276Y-101421974D01*
X192107001Y-101327001D01*
X192130804Y-101297997D01*
X194703731Y-98725072D01*
X195785000Y-98725072D01*
X195909482Y-98712812D01*
X196029180Y-98676502D01*
X196139494Y-98617537D01*
X196236185Y-98538185D01*
X196315537Y-98441494D01*
X196374502Y-98331180D01*
X196410812Y-98211482D01*
X196423072Y-98087000D01*
X198546928Y-98087000D01*
X198559188Y-98211482D01*
X198595498Y-98331180D01*
X198654463Y-98441494D01*
X198733815Y-98538185D01*
X198830506Y-98617537D01*
X198940820Y-98676502D01*
X199060518Y-98712812D01*
X199185000Y-98725072D01*
X199649250Y-98722000D01*
X199808000Y-98563250D01*
X199808000Y-97714000D01*
X200062000Y-97714000D01*
X200062000Y-98563250D01*
X200220750Y-98722000D01*
X200685000Y-98725072D01*
X200809482Y-98712812D01*
X200929180Y-98676502D01*
X201039494Y-98617537D01*
X201136185Y-98538185D01*
X201215537Y-98441494D01*
X201274502Y-98331180D01*
X201310812Y-98211482D01*
X201323072Y-98087000D01*
X201320000Y-97872750D01*
X201161250Y-97714000D01*
X200062000Y-97714000D01*
X199808000Y-97714000D01*
X198708750Y-97714000D01*
X198550000Y-97872750D01*
X198546928Y-98087000D01*
X196423072Y-98087000D01*
X196423072Y-97087000D01*
X196410812Y-96962518D01*
X196374502Y-96842820D01*
X196351079Y-96799000D01*
X198618921Y-96799000D01*
X198595498Y-96842820D01*
X198559188Y-96962518D01*
X198546928Y-97087000D01*
X198550000Y-97301250D01*
X198708750Y-97460000D01*
X199808000Y-97460000D01*
X199808000Y-97440000D01*
X200062000Y-97440000D01*
X200062000Y-97460000D01*
X201161250Y-97460000D01*
X201320000Y-97301250D01*
X201323072Y-97087000D01*
X201310812Y-96962518D01*
X201274502Y-96842820D01*
X201251079Y-96799000D01*
X202420363Y-96799000D01*
X202304231Y-96968626D01*
X204470000Y-99134395D01*
X206635769Y-96968626D01*
X206519637Y-96799000D01*
X208190307Y-96799000D01*
X208188928Y-96813000D01*
X208188928Y-98513000D01*
X208201188Y-98637482D01*
X208237498Y-98757180D01*
X208296463Y-98867494D01*
X208375815Y-98964185D01*
X208472506Y-99043537D01*
X208582820Y-99102502D01*
X208702518Y-99138812D01*
X208827000Y-99151072D01*
X210441523Y-99151072D01*
X210428962Y-99157786D01*
X210272952Y-99473347D01*
X211585000Y-100785395D01*
X212897048Y-99473347D01*
X212741038Y-99157786D01*
X212615578Y-99093913D01*
X212788034Y-99041599D01*
X213046014Y-98903706D01*
X213272134Y-98718134D01*
X213335001Y-98641531D01*
X213335001Y-99780676D01*
X213076653Y-99652952D01*
X211764605Y-100965000D01*
X213076653Y-102277048D01*
X213335001Y-102149324D01*
X213335000Y-113500676D01*
X213076653Y-113372952D01*
X211764605Y-114685000D01*
X213076653Y-115997048D01*
X213335000Y-115869324D01*
X213335000Y-118720000D01*
X206519637Y-118720000D01*
X206635769Y-118550374D01*
X204470000Y-116384605D01*
X202304231Y-118550374D01*
X202420363Y-118720000D01*
X201251079Y-118720000D01*
X201274502Y-118676180D01*
X201310812Y-118556482D01*
X201323072Y-118432000D01*
X201323072Y-117432000D01*
X201310812Y-117307518D01*
X201274502Y-117187820D01*
X201215537Y-117077506D01*
X201136185Y-116980815D01*
X201039494Y-116901463D01*
X200929180Y-116842498D01*
X200809482Y-116806188D01*
X200685000Y-116793928D01*
X199185000Y-116793928D01*
X199060518Y-116806188D01*
X198940820Y-116842498D01*
X198830506Y-116901463D01*
X198733815Y-116980815D01*
X198654463Y-117077506D01*
X198595498Y-117187820D01*
X198559188Y-117307518D01*
X198546928Y-117432000D01*
X198546928Y-118432000D01*
X198559188Y-118556482D01*
X198595498Y-118676180D01*
X198618921Y-118720000D01*
X196688154Y-118720000D01*
X196779059Y-118671411D01*
X196913817Y-118560817D01*
X196941534Y-118527044D01*
X198461050Y-117007529D01*
X198494817Y-116979817D01*
X198523875Y-116944411D01*
X198605411Y-116845059D01*
X198687589Y-116691314D01*
X198738195Y-116524490D01*
X198741374Y-116492214D01*
X198751000Y-116394477D01*
X198751000Y-116394469D01*
X198755281Y-116351000D01*
X198751000Y-116307531D01*
X198751000Y-115697288D01*
X198830506Y-115762537D01*
X198940820Y-115821502D01*
X199060518Y-115857812D01*
X199185000Y-115870072D01*
X199649250Y-115867000D01*
X199808000Y-115708250D01*
X199808000Y-114859000D01*
X200062000Y-114859000D01*
X200062000Y-115708250D01*
X200220750Y-115867000D01*
X200685000Y-115870072D01*
X200809482Y-115857812D01*
X200929180Y-115821502D01*
X201039494Y-115762537D01*
X201136185Y-115683185D01*
X201175280Y-115635548D01*
X201118866Y-116200431D01*
X201182366Y-116854293D01*
X201372208Y-117483203D01*
X201681096Y-118062992D01*
X201686172Y-118070589D01*
X202124626Y-118370769D01*
X204290395Y-116205000D01*
X204649605Y-116205000D01*
X206815374Y-118370769D01*
X207253828Y-118070589D01*
X207564296Y-117491644D01*
X207755852Y-116863254D01*
X207821134Y-116209569D01*
X207817938Y-116176653D01*
X210272952Y-116176653D01*
X210428962Y-116492214D01*
X210803745Y-116683020D01*
X211208551Y-116797044D01*
X211627824Y-116829902D01*
X212045451Y-116780334D01*
X212445383Y-116650243D01*
X212741038Y-116492214D01*
X212897048Y-116176653D01*
X211585000Y-114864605D01*
X210272952Y-116176653D01*
X207817938Y-116176653D01*
X207757634Y-115555707D01*
X207567792Y-114926797D01*
X207461788Y-114727824D01*
X209440098Y-114727824D01*
X209489666Y-115145451D01*
X209619757Y-115545383D01*
X209777786Y-115841038D01*
X210093347Y-115997048D01*
X211405395Y-114685000D01*
X210093347Y-113372952D01*
X209777786Y-113528962D01*
X209586980Y-113903745D01*
X209472956Y-114308551D01*
X209440098Y-114727824D01*
X207461788Y-114727824D01*
X207258904Y-114347008D01*
X207253828Y-114339411D01*
X206815374Y-114039231D01*
X204649605Y-116205000D01*
X204290395Y-116205000D01*
X202124626Y-114039231D01*
X201686172Y-114339411D01*
X201375704Y-114918356D01*
X201321141Y-115097346D01*
X201320000Y-115017750D01*
X201161250Y-114859000D01*
X200062000Y-114859000D01*
X199808000Y-114859000D01*
X199788000Y-114859000D01*
X199788000Y-114605000D01*
X199808000Y-114605000D01*
X199808000Y-113755750D01*
X200062000Y-113755750D01*
X200062000Y-114605000D01*
X201161250Y-114605000D01*
X201320000Y-114446250D01*
X201323072Y-114232000D01*
X201310812Y-114107518D01*
X201274502Y-113987820D01*
X201215537Y-113877506D01*
X201200864Y-113859626D01*
X202304231Y-113859626D01*
X204470000Y-116025395D01*
X206635769Y-113859626D01*
X206335589Y-113421172D01*
X205910753Y-113193347D01*
X210272952Y-113193347D01*
X211585000Y-114505395D01*
X212897048Y-113193347D01*
X212741038Y-112877786D01*
X212366255Y-112686980D01*
X211961449Y-112572956D01*
X211542176Y-112540098D01*
X211124549Y-112589666D01*
X210724617Y-112719757D01*
X210428962Y-112877786D01*
X210272952Y-113193347D01*
X205910753Y-113193347D01*
X205756644Y-113110704D01*
X205128254Y-112919148D01*
X204474569Y-112853866D01*
X203820707Y-112917366D01*
X203191797Y-113107208D01*
X202612008Y-113416096D01*
X202604411Y-113421172D01*
X202304231Y-113859626D01*
X201200864Y-113859626D01*
X201136185Y-113780815D01*
X201039494Y-113701463D01*
X200929180Y-113642498D01*
X200809482Y-113606188D01*
X200685000Y-113593928D01*
X200220750Y-113597000D01*
X200062000Y-113755750D01*
X199808000Y-113755750D01*
X199649250Y-113597000D01*
X199185000Y-113593928D01*
X199060518Y-113606188D01*
X198940820Y-113642498D01*
X198830506Y-113701463D01*
X198751000Y-113766712D01*
X198751000Y-113153000D01*
X198979533Y-113153000D01*
X199023002Y-113157281D01*
X199066471Y-113153000D01*
X199066479Y-113153000D01*
X199196492Y-113140195D01*
X199363315Y-113089589D01*
X199517061Y-113007411D01*
X199651819Y-112896817D01*
X199679536Y-112863044D01*
X202144049Y-110398532D01*
X202172722Y-110375000D01*
X207526928Y-110375000D01*
X207526928Y-111875000D01*
X207539188Y-111999482D01*
X207575498Y-112119180D01*
X207634463Y-112229494D01*
X207713815Y-112326185D01*
X207810506Y-112405537D01*
X207920820Y-112464502D01*
X208040518Y-112500812D01*
X208165000Y-112513072D01*
X209665000Y-112513072D01*
X209789482Y-112500812D01*
X209909180Y-112464502D01*
X210019494Y-112405537D01*
X210116185Y-112326185D01*
X210195537Y-112229494D01*
X210254502Y-112119180D01*
X210290812Y-111999482D01*
X210303072Y-111875000D01*
X210303072Y-110375000D01*
X210290812Y-110250518D01*
X210254502Y-110130820D01*
X210195537Y-110020506D01*
X210116185Y-109923815D01*
X210019494Y-109844463D01*
X209909180Y-109785498D01*
X209789482Y-109749188D01*
X209681517Y-109738555D01*
X209797886Y-109660799D01*
X209990799Y-109467886D01*
X210142371Y-109241043D01*
X210246775Y-108988989D01*
X210300000Y-108721411D01*
X210300000Y-108448589D01*
X210246775Y-108181011D01*
X210142371Y-107928957D01*
X209990799Y-107702114D01*
X209858685Y-107570000D01*
X209990799Y-107437886D01*
X210142371Y-107211043D01*
X210246775Y-106958989D01*
X210300000Y-106691411D01*
X210300000Y-106418589D01*
X210246775Y-106151011D01*
X210142371Y-105898957D01*
X209990799Y-105672114D01*
X209797886Y-105479201D01*
X209571043Y-105327629D01*
X209471721Y-105286489D01*
X209513832Y-105271277D01*
X209626863Y-105210860D01*
X209692388Y-104971993D01*
X208915000Y-104194605D01*
X208137612Y-104971993D01*
X208203137Y-105210860D01*
X208361477Y-105285164D01*
X208258957Y-105327629D01*
X208032114Y-105479201D01*
X207839201Y-105672114D01*
X207687629Y-105898957D01*
X207583225Y-106151011D01*
X207530000Y-106418589D01*
X207530000Y-106691411D01*
X207583225Y-106958989D01*
X207687629Y-107211043D01*
X207839201Y-107437886D01*
X207971315Y-107570000D01*
X207839201Y-107702114D01*
X207687629Y-107928957D01*
X207583225Y-108181011D01*
X207530000Y-108448589D01*
X207530000Y-108721411D01*
X207583225Y-108988989D01*
X207687629Y-109241043D01*
X207839201Y-109467886D01*
X208032114Y-109660799D01*
X208148483Y-109738555D01*
X208040518Y-109749188D01*
X207920820Y-109785498D01*
X207810506Y-109844463D01*
X207713815Y-109923815D01*
X207634463Y-110020506D01*
X207575498Y-110130820D01*
X207539188Y-110250518D01*
X207526928Y-110375000D01*
X202172722Y-110375000D01*
X202177817Y-110370819D01*
X202288411Y-110236061D01*
X202344663Y-110130820D01*
X202370589Y-110082316D01*
X202421195Y-109915492D01*
X202426680Y-109859799D01*
X202434000Y-109785479D01*
X202434000Y-109785471D01*
X202438281Y-109742002D01*
X202434000Y-109698533D01*
X202434000Y-108753469D01*
X202438281Y-108710000D01*
X202434000Y-108666531D01*
X202434000Y-108666523D01*
X202421195Y-108536510D01*
X202394524Y-108448589D01*
X202370589Y-108369686D01*
X202288411Y-108215941D01*
X202205532Y-108114953D01*
X202205530Y-108114951D01*
X202177817Y-108081183D01*
X202144050Y-108053471D01*
X201136896Y-107046318D01*
X201215537Y-106950494D01*
X201274502Y-106840180D01*
X201310812Y-106720482D01*
X201323072Y-106596000D01*
X201323072Y-105596000D01*
X201310812Y-105471518D01*
X201274502Y-105351820D01*
X201215537Y-105241506D01*
X201136185Y-105144815D01*
X201039494Y-105065463D01*
X200929180Y-105006498D01*
X200809482Y-104970188D01*
X200685000Y-104957928D01*
X199185000Y-104957928D01*
X199134000Y-104962951D01*
X199134000Y-104087492D01*
X207525188Y-104087492D01*
X207566035Y-104357238D01*
X207658723Y-104613832D01*
X207719140Y-104726863D01*
X207958007Y-104792388D01*
X208735395Y-104015000D01*
X209094605Y-104015000D01*
X209871993Y-104792388D01*
X210110860Y-104726863D01*
X210226760Y-104479884D01*
X210292250Y-104215040D01*
X210304812Y-103942508D01*
X210263965Y-103672762D01*
X210171277Y-103416168D01*
X210110860Y-103303137D01*
X209871993Y-103237612D01*
X209094605Y-104015000D01*
X208735395Y-104015000D01*
X207958007Y-103237612D01*
X207719140Y-103303137D01*
X207603240Y-103550116D01*
X207537750Y-103814960D01*
X207525188Y-104087492D01*
X199134000Y-104087492D01*
X199134000Y-103412801D01*
X199488794Y-103058007D01*
X208137612Y-103058007D01*
X208915000Y-103835395D01*
X209692388Y-103058007D01*
X209626863Y-102819140D01*
X209379884Y-102703240D01*
X209115040Y-102637750D01*
X208842508Y-102625188D01*
X208572762Y-102666035D01*
X208316168Y-102758723D01*
X208203137Y-102819140D01*
X208137612Y-103058007D01*
X199488794Y-103058007D01*
X200446004Y-102100798D01*
X200475001Y-102077001D01*
X200569974Y-101961276D01*
X200589326Y-101925072D01*
X200685000Y-101925072D01*
X200809482Y-101912812D01*
X200929180Y-101876502D01*
X201039494Y-101817537D01*
X201136185Y-101738185D01*
X201200863Y-101659374D01*
X202304231Y-101659374D01*
X202604411Y-102097828D01*
X203183356Y-102408296D01*
X203811746Y-102599852D01*
X204465431Y-102665134D01*
X205119293Y-102601634D01*
X205599587Y-102456653D01*
X210272952Y-102456653D01*
X210428962Y-102772214D01*
X210803745Y-102963020D01*
X211208551Y-103077044D01*
X211627824Y-103109902D01*
X212045451Y-103060334D01*
X212445383Y-102930243D01*
X212741038Y-102772214D01*
X212897048Y-102456653D01*
X211585000Y-101144605D01*
X210272952Y-102456653D01*
X205599587Y-102456653D01*
X205748203Y-102411792D01*
X206327992Y-102102904D01*
X206335589Y-102097828D01*
X206635769Y-101659374D01*
X204470000Y-99493605D01*
X202304231Y-101659374D01*
X201200863Y-101659374D01*
X201215537Y-101641494D01*
X201274502Y-101531180D01*
X201310812Y-101411482D01*
X201323072Y-101287000D01*
X201323072Y-100429425D01*
X201372208Y-100592203D01*
X201681096Y-101171992D01*
X201686172Y-101179589D01*
X202124626Y-101479769D01*
X204290395Y-99314000D01*
X204649605Y-99314000D01*
X206815374Y-101479769D01*
X207253828Y-101179589D01*
X207345939Y-101007824D01*
X209440098Y-101007824D01*
X209489666Y-101425451D01*
X209619757Y-101825383D01*
X209777786Y-102121038D01*
X210093347Y-102277048D01*
X211405395Y-100965000D01*
X210093347Y-99652952D01*
X209777786Y-99808962D01*
X209586980Y-100183745D01*
X209472956Y-100588551D01*
X209440098Y-101007824D01*
X207345939Y-101007824D01*
X207564296Y-100600644D01*
X207755852Y-99972254D01*
X207821134Y-99318569D01*
X207757634Y-98664707D01*
X207567792Y-98035797D01*
X207258904Y-97456008D01*
X207253828Y-97448411D01*
X206815374Y-97148231D01*
X204649605Y-99314000D01*
X204290395Y-99314000D01*
X202124626Y-97148231D01*
X201686172Y-97448411D01*
X201375704Y-98027356D01*
X201184148Y-98655746D01*
X201118866Y-99309431D01*
X201174523Y-99882530D01*
X201136185Y-99835815D01*
X201039494Y-99756463D01*
X200929180Y-99697498D01*
X200809482Y-99661188D01*
X200685000Y-99648928D01*
X199185000Y-99648928D01*
X199060518Y-99661188D01*
X198940820Y-99697498D01*
X198830506Y-99756463D01*
X198733815Y-99835815D01*
X198654463Y-99932506D01*
X198595498Y-100042820D01*
X198559188Y-100162518D01*
X198546928Y-100287000D01*
X198546928Y-101287000D01*
X198559188Y-101411482D01*
X198595498Y-101531180D01*
X198654463Y-101641494D01*
X198700098Y-101697101D01*
X197862998Y-102534201D01*
X197834000Y-102557999D01*
X197810202Y-102586997D01*
X197810201Y-102586998D01*
X197739026Y-102673724D01*
X197668454Y-102805754D01*
X197624998Y-102949015D01*
X197610324Y-103098000D01*
X197614001Y-103135332D01*
X197614000Y-106947677D01*
X197610324Y-106985000D01*
X197614000Y-107022322D01*
X197614000Y-107022332D01*
X197624997Y-107133985D01*
X197661710Y-107255014D01*
X197668454Y-107277246D01*
X197739026Y-107409276D01*
X197761214Y-107436312D01*
X197833999Y-107525001D01*
X197863003Y-107548804D01*
X198700098Y-108385899D01*
X198654463Y-108441506D01*
X198595498Y-108551820D01*
X198559188Y-108671518D01*
X198546928Y-108796000D01*
X198546928Y-109796000D01*
X198559188Y-109920482D01*
X198595498Y-110040180D01*
X198654463Y-110150494D01*
X198733815Y-110247185D01*
X198830506Y-110326537D01*
X198940820Y-110385502D01*
X199060518Y-110421812D01*
X199185000Y-110434072D01*
X199605352Y-110434072D01*
X198656424Y-111383000D01*
X197909477Y-111383000D01*
X197866000Y-111378718D01*
X197822524Y-111383000D01*
X189400469Y-111383000D01*
X189372000Y-111380196D01*
X189372000Y-110362079D01*
X189415820Y-110385502D01*
X189535518Y-110421812D01*
X189660000Y-110434072D01*
X191160000Y-110434072D01*
X191284482Y-110421812D01*
X191404180Y-110385502D01*
X191514494Y-110326537D01*
X191611185Y-110247185D01*
X191690537Y-110150494D01*
X191749502Y-110040180D01*
X191772634Y-109963923D01*
X191834276Y-109930974D01*
X191950001Y-109836001D01*
X191973804Y-109806997D01*
X191984801Y-109796000D01*
X193646928Y-109796000D01*
X193659188Y-109920482D01*
X193695498Y-110040180D01*
X193754463Y-110150494D01*
X193833815Y-110247185D01*
X193930506Y-110326537D01*
X194040820Y-110385502D01*
X194160518Y-110421812D01*
X194285000Y-110434072D01*
X194749250Y-110431000D01*
X194908000Y-110272250D01*
X194908000Y-109423000D01*
X195162000Y-109423000D01*
X195162000Y-110272250D01*
X195320750Y-110431000D01*
X195785000Y-110434072D01*
X195909482Y-110421812D01*
X196029180Y-110385502D01*
X196139494Y-110326537D01*
X196236185Y-110247185D01*
X196315537Y-110150494D01*
X196374502Y-110040180D01*
X196410812Y-109920482D01*
X196423072Y-109796000D01*
X196420000Y-109581750D01*
X196261250Y-109423000D01*
X195162000Y-109423000D01*
X194908000Y-109423000D01*
X193808750Y-109423000D01*
X193650000Y-109581750D01*
X193646928Y-109796000D01*
X191984801Y-109796000D01*
X192984801Y-108796000D01*
X193646928Y-108796000D01*
X193650000Y-109010250D01*
X193808750Y-109169000D01*
X194908000Y-109169000D01*
X194908000Y-108319750D01*
X195162000Y-108319750D01*
X195162000Y-109169000D01*
X196261250Y-109169000D01*
X196420000Y-109010250D01*
X196423072Y-108796000D01*
X196410812Y-108671518D01*
X196374502Y-108551820D01*
X196315537Y-108441506D01*
X196236185Y-108344815D01*
X196139494Y-108265463D01*
X196029180Y-108206498D01*
X195909482Y-108170188D01*
X195785000Y-108157928D01*
X195320750Y-108161000D01*
X195162000Y-108319750D01*
X194908000Y-108319750D01*
X194749250Y-108161000D01*
X194285000Y-108157928D01*
X194160518Y-108170188D01*
X194040820Y-108206498D01*
X193930506Y-108265463D01*
X193833815Y-108344815D01*
X193754463Y-108441506D01*
X193695498Y-108551820D01*
X193659188Y-108671518D01*
X193646928Y-108796000D01*
X192984801Y-108796000D01*
X194546730Y-107234072D01*
X195785000Y-107234072D01*
X195909482Y-107221812D01*
X196029180Y-107185502D01*
X196139494Y-107126537D01*
X196236185Y-107047185D01*
X196315537Y-106950494D01*
X196374502Y-106840180D01*
X196410812Y-106720482D01*
X196423072Y-106596000D01*
X196423072Y-105596000D01*
X196410812Y-105471518D01*
X196374502Y-105351820D01*
X196315537Y-105241506D01*
X196236185Y-105144815D01*
X196139494Y-105065463D01*
X196029180Y-105006498D01*
X195909482Y-104970188D01*
X195785000Y-104957928D01*
X194285000Y-104957928D01*
X194160518Y-104970188D01*
X194040820Y-105006498D01*
X193975260Y-105041541D01*
X194603802Y-104413000D01*
X194665939Y-104413000D01*
X194865898Y-104373226D01*
X195054256Y-104295205D01*
X195223774Y-104181937D01*
X195367937Y-104037774D01*
X195481205Y-103868256D01*
X195559226Y-103679898D01*
X195599000Y-103479939D01*
X195599000Y-103276061D01*
X195559226Y-103076102D01*
X195481205Y-102887744D01*
X195367937Y-102718226D01*
X195223774Y-102574063D01*
X195054256Y-102460795D01*
X194865898Y-102382774D01*
X194665939Y-102343000D01*
X194462061Y-102343000D01*
X194402789Y-102354790D01*
X194832507Y-101925072D01*
X195785000Y-101925072D01*
X195909482Y-101912812D01*
X196029180Y-101876502D01*
X196139494Y-101817537D01*
X196236185Y-101738185D01*
X196315537Y-101641494D01*
X196374502Y-101531180D01*
X196410812Y-101411482D01*
X196423072Y-101287000D01*
X196423072Y-100287000D01*
X196410812Y-100162518D01*
X196374502Y-100042820D01*
X196315537Y-99932506D01*
X196236185Y-99835815D01*
X196139494Y-99756463D01*
X196029180Y-99697498D01*
X195909482Y-99661188D01*
X195785000Y-99648928D01*
X194285000Y-99648928D01*
X194160518Y-99661188D01*
X194040820Y-99697498D01*
X193930506Y-99756463D01*
X193833815Y-99835815D01*
X193754463Y-99932506D01*
X193695498Y-100042820D01*
X193659188Y-100162518D01*
X193646928Y-100287000D01*
X193646928Y-100607493D01*
X190739500Y-103514921D01*
X187416534Y-100191956D01*
X187388817Y-100158183D01*
X187254059Y-100047589D01*
X187100313Y-99965411D01*
X186933490Y-99914805D01*
X186803477Y-99902000D01*
X186803469Y-99902000D01*
X186762163Y-99897932D01*
X186711185Y-99835815D01*
X186614494Y-99756463D01*
X186504180Y-99697498D01*
X186384482Y-99661188D01*
X186260000Y-99648928D01*
X184760000Y-99648928D01*
X184635518Y-99661188D01*
X184515820Y-99697498D01*
X184405506Y-99756463D01*
X184308815Y-99835815D01*
X184269720Y-99883452D01*
X184326134Y-99318569D01*
X184262634Y-98664707D01*
X184072792Y-98035797D01*
X183763904Y-97456008D01*
X183758828Y-97448411D01*
X183320374Y-97148231D01*
X181154605Y-99314000D01*
X183320374Y-101479769D01*
X183758828Y-101179589D01*
X184069296Y-100600644D01*
X184121928Y-100427987D01*
X184121928Y-101287000D01*
X184134188Y-101411482D01*
X184170498Y-101531180D01*
X184229463Y-101641494D01*
X184308815Y-101738185D01*
X184405506Y-101817537D01*
X184515820Y-101876502D01*
X184635518Y-101912812D01*
X184760000Y-101925072D01*
X186260000Y-101925072D01*
X186384482Y-101912812D01*
X186504180Y-101876502D01*
X186565270Y-101843848D01*
X189525000Y-104803579D01*
X189525000Y-104973379D01*
X189415820Y-105006498D01*
X189305506Y-105065463D01*
X189208815Y-105144815D01*
X189129463Y-105241506D01*
X189070498Y-105351820D01*
X189034188Y-105471518D01*
X189021928Y-105596000D01*
X189021928Y-106596000D01*
X189034188Y-106720482D01*
X189070498Y-106840180D01*
X189129463Y-106950494D01*
X189208103Y-107046318D01*
X187891951Y-108362471D01*
X187858184Y-108390183D01*
X187830471Y-108423951D01*
X187830468Y-108423954D01*
X187747590Y-108524941D01*
X187704000Y-108606493D01*
X187704000Y-106567325D01*
X187707676Y-106530000D01*
X187704000Y-106492675D01*
X187704000Y-106492667D01*
X187693003Y-106381014D01*
X187649546Y-106237753D01*
X187578974Y-106105724D01*
X187484001Y-105989999D01*
X187454998Y-105966197D01*
X187073804Y-105585003D01*
X187050001Y-105555999D01*
X186934276Y-105461026D01*
X186872634Y-105428077D01*
X186849502Y-105351820D01*
X186790537Y-105241506D01*
X186711185Y-105144815D01*
X186614494Y-105065463D01*
X186504180Y-105006498D01*
X186384482Y-104970188D01*
X186260000Y-104957928D01*
X184760000Y-104957928D01*
X184635518Y-104970188D01*
X184515820Y-105006498D01*
X184405506Y-105065463D01*
X184308815Y-105144815D01*
X184229463Y-105241506D01*
X184170498Y-105351820D01*
X184134188Y-105471518D01*
X184121928Y-105596000D01*
X184121928Y-106596000D01*
X184134188Y-106720482D01*
X184170498Y-106840180D01*
X184229463Y-106950494D01*
X184308815Y-107047185D01*
X184405506Y-107126537D01*
X184515820Y-107185502D01*
X184635518Y-107221812D01*
X184760000Y-107234072D01*
X186184000Y-107234072D01*
X186184000Y-108158431D01*
X185795750Y-108161000D01*
X185637000Y-108319750D01*
X185637000Y-109169000D01*
X185657000Y-109169000D01*
X185657000Y-109423000D01*
X185637000Y-109423000D01*
X185637000Y-110272250D01*
X185795750Y-110431000D01*
X186184001Y-110433569D01*
X186184001Y-112233197D01*
X184999003Y-113418196D01*
X184969999Y-113441999D01*
X184914871Y-113509174D01*
X184875026Y-113557724D01*
X184855674Y-113593928D01*
X184760000Y-113593928D01*
X184635518Y-113606188D01*
X184515820Y-113642498D01*
X184405506Y-113701463D01*
X184308815Y-113780815D01*
X184229463Y-113877506D01*
X184170498Y-113987820D01*
X184134188Y-114107518D01*
X184121928Y-114232000D01*
X184121928Y-115089575D01*
X184072792Y-114926797D01*
X183763904Y-114347008D01*
X183758828Y-114339411D01*
X183320374Y-114039231D01*
X181154605Y-116205000D01*
X183320374Y-118370769D01*
X183758828Y-118070589D01*
X184069296Y-117491644D01*
X184260852Y-116863254D01*
X184326134Y-116209569D01*
X184270477Y-115636470D01*
X184308815Y-115683185D01*
X184405506Y-115762537D01*
X184515820Y-115821502D01*
X184635518Y-115857812D01*
X184760000Y-115870072D01*
X186260000Y-115870072D01*
X186384482Y-115857812D01*
X186504180Y-115821502D01*
X186614494Y-115762537D01*
X186711185Y-115683185D01*
X186790537Y-115586494D01*
X186849502Y-115476180D01*
X186885812Y-115356482D01*
X186898072Y-115232000D01*
X186898072Y-114232000D01*
X186885812Y-114107518D01*
X186849502Y-113987820D01*
X186790537Y-113877506D01*
X186744902Y-113821899D01*
X187455003Y-113111799D01*
X187484001Y-113088001D01*
X187578974Y-112972276D01*
X187602000Y-112929198D01*
X187602000Y-113094531D01*
X187597719Y-113138000D01*
X187602000Y-113181469D01*
X187602000Y-113181476D01*
X187602001Y-113181486D01*
X187602000Y-115838421D01*
X186565270Y-116875152D01*
X186504180Y-116842498D01*
X186384482Y-116806188D01*
X186260000Y-116793928D01*
X184760000Y-116793928D01*
X184635518Y-116806188D01*
X184515820Y-116842498D01*
X184405506Y-116901463D01*
X184308815Y-116980815D01*
X184229463Y-117077506D01*
X184170498Y-117187820D01*
X184134188Y-117307518D01*
X184121928Y-117432000D01*
X184121928Y-118432000D01*
X184134188Y-118556482D01*
X184170498Y-118676180D01*
X184193921Y-118720000D01*
X183024637Y-118720000D01*
X183140769Y-118550374D01*
X180975000Y-116384605D01*
X178809231Y-118550374D01*
X178925363Y-118720000D01*
X178460000Y-118720000D01*
X178460000Y-118254637D01*
X178629626Y-118370769D01*
X180795395Y-116205000D01*
X178629626Y-114039231D01*
X178460000Y-114155363D01*
X178460000Y-113859626D01*
X178809231Y-113859626D01*
X180975000Y-116025395D01*
X183140769Y-113859626D01*
X182840589Y-113421172D01*
X182261644Y-113110704D01*
X181633254Y-112919148D01*
X180979569Y-112853866D01*
X180325707Y-112917366D01*
X179696797Y-113107208D01*
X179117008Y-113416096D01*
X179109411Y-113421172D01*
X178809231Y-113859626D01*
X178460000Y-113859626D01*
X178460000Y-112478903D01*
X178480412Y-112506269D01*
X178696645Y-112701178D01*
X178946748Y-112850157D01*
X179221109Y-112947481D01*
X179451000Y-112826814D01*
X179451000Y-111633000D01*
X179705000Y-111633000D01*
X179705000Y-112826814D01*
X179934891Y-112947481D01*
X180209252Y-112850157D01*
X180459355Y-112701178D01*
X180675588Y-112506269D01*
X180849641Y-112272920D01*
X180974825Y-112010099D01*
X181019476Y-111862890D01*
X180898155Y-111633000D01*
X179705000Y-111633000D01*
X179451000Y-111633000D01*
X179431000Y-111633000D01*
X179431000Y-111379000D01*
X179451000Y-111379000D01*
X179451000Y-111359000D01*
X179705000Y-111359000D01*
X179705000Y-111379000D01*
X180898155Y-111379000D01*
X181019476Y-111149110D01*
X180974825Y-111001901D01*
X180849641Y-110739080D01*
X180675588Y-110505731D01*
X180459355Y-110310822D01*
X180342477Y-110241201D01*
X180407014Y-110206706D01*
X180633134Y-110021134D01*
X180817896Y-109796000D01*
X184121928Y-109796000D01*
X184134188Y-109920482D01*
X184170498Y-110040180D01*
X184229463Y-110150494D01*
X184308815Y-110247185D01*
X184405506Y-110326537D01*
X184515820Y-110385502D01*
X184635518Y-110421812D01*
X184760000Y-110434072D01*
X185224250Y-110431000D01*
X185383000Y-110272250D01*
X185383000Y-109423000D01*
X184283750Y-109423000D01*
X184125000Y-109581750D01*
X184121928Y-109796000D01*
X180817896Y-109796000D01*
X180818706Y-109795014D01*
X180956599Y-109537034D01*
X181041513Y-109257111D01*
X181070185Y-108966000D01*
X181053442Y-108796000D01*
X184121928Y-108796000D01*
X184125000Y-109010250D01*
X184283750Y-109169000D01*
X185383000Y-109169000D01*
X185383000Y-108319750D01*
X185224250Y-108161000D01*
X184760000Y-108157928D01*
X184635518Y-108170188D01*
X184515820Y-108206498D01*
X184405506Y-108265463D01*
X184308815Y-108344815D01*
X184229463Y-108441506D01*
X184170498Y-108551820D01*
X184134188Y-108671518D01*
X184121928Y-108796000D01*
X181053442Y-108796000D01*
X181041513Y-108674889D01*
X180956599Y-108394966D01*
X180818706Y-108136986D01*
X180633134Y-107910866D01*
X180407014Y-107725294D01*
X180352209Y-107696000D01*
X180407014Y-107666706D01*
X180633134Y-107481134D01*
X180818706Y-107255014D01*
X180956599Y-106997034D01*
X181041513Y-106717111D01*
X181070185Y-106426000D01*
X181041513Y-106134889D01*
X180956599Y-105854966D01*
X180818706Y-105596986D01*
X180633134Y-105370866D01*
X180603313Y-105346393D01*
X180672180Y-105325502D01*
X180782494Y-105266537D01*
X180879185Y-105187185D01*
X180958537Y-105090494D01*
X181017502Y-104980180D01*
X181053812Y-104860482D01*
X181066072Y-104736000D01*
X181066072Y-103036000D01*
X181053812Y-102911518D01*
X181017502Y-102791820D01*
X180958537Y-102681506D01*
X180942840Y-102662379D01*
X180970431Y-102665134D01*
X181624293Y-102601634D01*
X182253203Y-102411792D01*
X182832992Y-102102904D01*
X182840589Y-102097828D01*
X183140769Y-101659374D01*
X180975000Y-99493605D01*
X178809231Y-101659374D01*
X179109411Y-102097828D01*
X179669022Y-102397928D01*
X178728000Y-102397928D01*
X178603518Y-102410188D01*
X178483820Y-102446498D01*
X178460000Y-102459230D01*
X178460000Y-101363637D01*
X178629626Y-101479769D01*
X180795395Y-99314000D01*
X178629626Y-97148231D01*
X178460000Y-97264363D01*
X178460000Y-96799000D01*
X178925363Y-96799000D01*
X178809231Y-96968626D01*
X178809231Y-96968626D01*
G37*
X178809231Y-96968626D02*
X180975000Y-99134395D01*
X183140769Y-96968626D01*
X183024637Y-96799000D01*
X184193921Y-96799000D01*
X184170498Y-96842820D01*
X184134188Y-96962518D01*
X184121928Y-97087000D01*
X184121928Y-98087000D01*
X184134188Y-98211482D01*
X184170498Y-98331180D01*
X184229463Y-98441494D01*
X184308815Y-98538185D01*
X184405506Y-98617537D01*
X184515820Y-98676502D01*
X184635518Y-98712812D01*
X184760000Y-98725072D01*
X186260000Y-98725072D01*
X186384482Y-98712812D01*
X186504180Y-98676502D01*
X186614494Y-98617537D01*
X186711185Y-98538185D01*
X186790537Y-98441494D01*
X186849502Y-98331180D01*
X186885812Y-98211482D01*
X186898072Y-98087000D01*
X189021928Y-98087000D01*
X189034188Y-98211482D01*
X189070498Y-98331180D01*
X189129463Y-98441494D01*
X189208815Y-98538185D01*
X189305506Y-98617537D01*
X189415820Y-98676502D01*
X189535518Y-98712812D01*
X189660000Y-98725072D01*
X190124250Y-98722000D01*
X190283000Y-98563250D01*
X190283000Y-97714000D01*
X190537000Y-97714000D01*
X190537000Y-98563250D01*
X190695750Y-98722000D01*
X191160000Y-98725072D01*
X191284482Y-98712812D01*
X191404180Y-98676502D01*
X191514494Y-98617537D01*
X191611185Y-98538185D01*
X191690537Y-98441494D01*
X191749502Y-98331180D01*
X191785812Y-98211482D01*
X191798072Y-98087000D01*
X191795000Y-97872750D01*
X191636250Y-97714000D01*
X190537000Y-97714000D01*
X190283000Y-97714000D01*
X189183750Y-97714000D01*
X189025000Y-97872750D01*
X189021928Y-98087000D01*
X186898072Y-98087000D01*
X186898072Y-97087000D01*
X186885812Y-96962518D01*
X186849502Y-96842820D01*
X186826079Y-96799000D01*
X189093921Y-96799000D01*
X189070498Y-96842820D01*
X189034188Y-96962518D01*
X189021928Y-97087000D01*
X189025000Y-97301250D01*
X189183750Y-97460000D01*
X190283000Y-97460000D01*
X190283000Y-97440000D01*
X190537000Y-97440000D01*
X190537000Y-97460000D01*
X191636250Y-97460000D01*
X191795000Y-97301250D01*
X191798072Y-97087000D01*
X191785812Y-96962518D01*
X191749502Y-96842820D01*
X191726079Y-96799000D01*
X193718921Y-96799000D01*
X193695498Y-96842820D01*
X193659188Y-96962518D01*
X193646928Y-97087000D01*
X193646928Y-97632269D01*
X191519021Y-99760178D01*
X191514494Y-99756463D01*
X191404180Y-99697498D01*
X191284482Y-99661188D01*
X191160000Y-99648928D01*
X189660000Y-99648928D01*
X189535518Y-99661188D01*
X189415820Y-99697498D01*
X189305506Y-99756463D01*
X189208815Y-99835815D01*
X189129463Y-99932506D01*
X189070498Y-100042820D01*
X189034188Y-100162518D01*
X189021928Y-100287000D01*
X189021928Y-101287000D01*
X189034188Y-101411482D01*
X189070498Y-101531180D01*
X189129463Y-101641494D01*
X189208815Y-101738185D01*
X189305506Y-101817537D01*
X189415820Y-101876502D01*
X189535518Y-101912812D01*
X189660000Y-101925072D01*
X191160000Y-101925072D01*
X191284482Y-101912812D01*
X191404180Y-101876502D01*
X191514494Y-101817537D01*
X191611185Y-101738185D01*
X191690537Y-101641494D01*
X191749502Y-101531180D01*
X191751287Y-101525295D01*
X191859247Y-101492546D01*
X191991276Y-101421974D01*
X192107001Y-101327001D01*
X192130804Y-101297997D01*
X194703731Y-98725072D01*
X195785000Y-98725072D01*
X195909482Y-98712812D01*
X196029180Y-98676502D01*
X196139494Y-98617537D01*
X196236185Y-98538185D01*
X196315537Y-98441494D01*
X196374502Y-98331180D01*
X196410812Y-98211482D01*
X196423072Y-98087000D01*
X198546928Y-98087000D01*
X198559188Y-98211482D01*
X198595498Y-98331180D01*
X198654463Y-98441494D01*
X198733815Y-98538185D01*
X198830506Y-98617537D01*
X198940820Y-98676502D01*
X199060518Y-98712812D01*
X199185000Y-98725072D01*
X199649250Y-98722000D01*
X199808000Y-98563250D01*
X199808000Y-97714000D01*
X200062000Y-97714000D01*
X200062000Y-98563250D01*
X200220750Y-98722000D01*
X200685000Y-98725072D01*
X200809482Y-98712812D01*
X200929180Y-98676502D01*
X201039494Y-98617537D01*
X201136185Y-98538185D01*
X201215537Y-98441494D01*
X201274502Y-98331180D01*
X201310812Y-98211482D01*
X201323072Y-98087000D01*
X201320000Y-97872750D01*
X201161250Y-97714000D01*
X200062000Y-97714000D01*
X199808000Y-97714000D01*
X198708750Y-97714000D01*
X198550000Y-97872750D01*
X198546928Y-98087000D01*
X196423072Y-98087000D01*
X196423072Y-97087000D01*
X196410812Y-96962518D01*
X196374502Y-96842820D01*
X196351079Y-96799000D01*
X198618921Y-96799000D01*
X198595498Y-96842820D01*
X198559188Y-96962518D01*
X198546928Y-97087000D01*
X198550000Y-97301250D01*
X198708750Y-97460000D01*
X199808000Y-97460000D01*
X199808000Y-97440000D01*
X200062000Y-97440000D01*
X200062000Y-97460000D01*
X201161250Y-97460000D01*
X201320000Y-97301250D01*
X201323072Y-97087000D01*
X201310812Y-96962518D01*
X201274502Y-96842820D01*
X201251079Y-96799000D01*
X202420363Y-96799000D01*
X202304231Y-96968626D01*
X204470000Y-99134395D01*
X206635769Y-96968626D01*
X206519637Y-96799000D01*
X208190307Y-96799000D01*
X208188928Y-96813000D01*
X208188928Y-98513000D01*
X208201188Y-98637482D01*
X208237498Y-98757180D01*
X208296463Y-98867494D01*
X208375815Y-98964185D01*
X208472506Y-99043537D01*
X208582820Y-99102502D01*
X208702518Y-99138812D01*
X208827000Y-99151072D01*
X210441523Y-99151072D01*
X210428962Y-99157786D01*
X210272952Y-99473347D01*
X211585000Y-100785395D01*
X212897048Y-99473347D01*
X212741038Y-99157786D01*
X212615578Y-99093913D01*
X212788034Y-99041599D01*
X213046014Y-98903706D01*
X213272134Y-98718134D01*
X213335001Y-98641531D01*
X213335001Y-99780676D01*
X213076653Y-99652952D01*
X211764605Y-100965000D01*
X213076653Y-102277048D01*
X213335001Y-102149324D01*
X213335000Y-113500676D01*
X213076653Y-113372952D01*
X211764605Y-114685000D01*
X213076653Y-115997048D01*
X213335000Y-115869324D01*
X213335000Y-118720000D01*
X206519637Y-118720000D01*
X206635769Y-118550374D01*
X204470000Y-116384605D01*
X202304231Y-118550374D01*
X202420363Y-118720000D01*
X201251079Y-118720000D01*
X201274502Y-118676180D01*
X201310812Y-118556482D01*
X201323072Y-118432000D01*
X201323072Y-117432000D01*
X201310812Y-117307518D01*
X201274502Y-117187820D01*
X201215537Y-117077506D01*
X201136185Y-116980815D01*
X201039494Y-116901463D01*
X200929180Y-116842498D01*
X200809482Y-116806188D01*
X200685000Y-116793928D01*
X199185000Y-116793928D01*
X199060518Y-116806188D01*
X198940820Y-116842498D01*
X198830506Y-116901463D01*
X198733815Y-116980815D01*
X198654463Y-117077506D01*
X198595498Y-117187820D01*
X198559188Y-117307518D01*
X198546928Y-117432000D01*
X198546928Y-118432000D01*
X198559188Y-118556482D01*
X198595498Y-118676180D01*
X198618921Y-118720000D01*
X196688154Y-118720000D01*
X196779059Y-118671411D01*
X196913817Y-118560817D01*
X196941534Y-118527044D01*
X198461050Y-117007529D01*
X198494817Y-116979817D01*
X198523875Y-116944411D01*
X198605411Y-116845059D01*
X198687589Y-116691314D01*
X198738195Y-116524490D01*
X198741374Y-116492214D01*
X198751000Y-116394477D01*
X198751000Y-116394469D01*
X198755281Y-116351000D01*
X198751000Y-116307531D01*
X198751000Y-115697288D01*
X198830506Y-115762537D01*
X198940820Y-115821502D01*
X199060518Y-115857812D01*
X199185000Y-115870072D01*
X199649250Y-115867000D01*
X199808000Y-115708250D01*
X199808000Y-114859000D01*
X200062000Y-114859000D01*
X200062000Y-115708250D01*
X200220750Y-115867000D01*
X200685000Y-115870072D01*
X200809482Y-115857812D01*
X200929180Y-115821502D01*
X201039494Y-115762537D01*
X201136185Y-115683185D01*
X201175280Y-115635548D01*
X201118866Y-116200431D01*
X201182366Y-116854293D01*
X201372208Y-117483203D01*
X201681096Y-118062992D01*
X201686172Y-118070589D01*
X202124626Y-118370769D01*
X204290395Y-116205000D01*
X204649605Y-116205000D01*
X206815374Y-118370769D01*
X207253828Y-118070589D01*
X207564296Y-117491644D01*
X207755852Y-116863254D01*
X207821134Y-116209569D01*
X207817938Y-116176653D01*
X210272952Y-116176653D01*
X210428962Y-116492214D01*
X210803745Y-116683020D01*
X211208551Y-116797044D01*
X211627824Y-116829902D01*
X212045451Y-116780334D01*
X212445383Y-116650243D01*
X212741038Y-116492214D01*
X212897048Y-116176653D01*
X211585000Y-114864605D01*
X210272952Y-116176653D01*
X207817938Y-116176653D01*
X207757634Y-115555707D01*
X207567792Y-114926797D01*
X207461788Y-114727824D01*
X209440098Y-114727824D01*
X209489666Y-115145451D01*
X209619757Y-115545383D01*
X209777786Y-115841038D01*
X210093347Y-115997048D01*
X211405395Y-114685000D01*
X210093347Y-113372952D01*
X209777786Y-113528962D01*
X209586980Y-113903745D01*
X209472956Y-114308551D01*
X209440098Y-114727824D01*
X207461788Y-114727824D01*
X207258904Y-114347008D01*
X207253828Y-114339411D01*
X206815374Y-114039231D01*
X204649605Y-116205000D01*
X204290395Y-116205000D01*
X202124626Y-114039231D01*
X201686172Y-114339411D01*
X201375704Y-114918356D01*
X201321141Y-115097346D01*
X201320000Y-115017750D01*
X201161250Y-114859000D01*
X200062000Y-114859000D01*
X199808000Y-114859000D01*
X199788000Y-114859000D01*
X199788000Y-114605000D01*
X199808000Y-114605000D01*
X199808000Y-113755750D01*
X200062000Y-113755750D01*
X200062000Y-114605000D01*
X201161250Y-114605000D01*
X201320000Y-114446250D01*
X201323072Y-114232000D01*
X201310812Y-114107518D01*
X201274502Y-113987820D01*
X201215537Y-113877506D01*
X201200864Y-113859626D01*
X202304231Y-113859626D01*
X204470000Y-116025395D01*
X206635769Y-113859626D01*
X206335589Y-113421172D01*
X205910753Y-113193347D01*
X210272952Y-113193347D01*
X211585000Y-114505395D01*
X212897048Y-113193347D01*
X212741038Y-112877786D01*
X212366255Y-112686980D01*
X211961449Y-112572956D01*
X211542176Y-112540098D01*
X211124549Y-112589666D01*
X210724617Y-112719757D01*
X210428962Y-112877786D01*
X210272952Y-113193347D01*
X205910753Y-113193347D01*
X205756644Y-113110704D01*
X205128254Y-112919148D01*
X204474569Y-112853866D01*
X203820707Y-112917366D01*
X203191797Y-113107208D01*
X202612008Y-113416096D01*
X202604411Y-113421172D01*
X202304231Y-113859626D01*
X201200864Y-113859626D01*
X201136185Y-113780815D01*
X201039494Y-113701463D01*
X200929180Y-113642498D01*
X200809482Y-113606188D01*
X200685000Y-113593928D01*
X200220750Y-113597000D01*
X200062000Y-113755750D01*
X199808000Y-113755750D01*
X199649250Y-113597000D01*
X199185000Y-113593928D01*
X199060518Y-113606188D01*
X198940820Y-113642498D01*
X198830506Y-113701463D01*
X198751000Y-113766712D01*
X198751000Y-113153000D01*
X198979533Y-113153000D01*
X199023002Y-113157281D01*
X199066471Y-113153000D01*
X199066479Y-113153000D01*
X199196492Y-113140195D01*
X199363315Y-113089589D01*
X199517061Y-113007411D01*
X199651819Y-112896817D01*
X199679536Y-112863044D01*
X202144049Y-110398532D01*
X202172722Y-110375000D01*
X207526928Y-110375000D01*
X207526928Y-111875000D01*
X207539188Y-111999482D01*
X207575498Y-112119180D01*
X207634463Y-112229494D01*
X207713815Y-112326185D01*
X207810506Y-112405537D01*
X207920820Y-112464502D01*
X208040518Y-112500812D01*
X208165000Y-112513072D01*
X209665000Y-112513072D01*
X209789482Y-112500812D01*
X209909180Y-112464502D01*
X210019494Y-112405537D01*
X210116185Y-112326185D01*
X210195537Y-112229494D01*
X210254502Y-112119180D01*
X210290812Y-111999482D01*
X210303072Y-111875000D01*
X210303072Y-110375000D01*
X210290812Y-110250518D01*
X210254502Y-110130820D01*
X210195537Y-110020506D01*
X210116185Y-109923815D01*
X210019494Y-109844463D01*
X209909180Y-109785498D01*
X209789482Y-109749188D01*
X209681517Y-109738555D01*
X209797886Y-109660799D01*
X209990799Y-109467886D01*
X210142371Y-109241043D01*
X210246775Y-108988989D01*
X210300000Y-108721411D01*
X210300000Y-108448589D01*
X210246775Y-108181011D01*
X210142371Y-107928957D01*
X209990799Y-107702114D01*
X209858685Y-107570000D01*
X209990799Y-107437886D01*
X210142371Y-107211043D01*
X210246775Y-106958989D01*
X210300000Y-106691411D01*
X210300000Y-106418589D01*
X210246775Y-106151011D01*
X210142371Y-105898957D01*
X209990799Y-105672114D01*
X209797886Y-105479201D01*
X209571043Y-105327629D01*
X209471721Y-105286489D01*
X209513832Y-105271277D01*
X209626863Y-105210860D01*
X209692388Y-104971993D01*
X208915000Y-104194605D01*
X208137612Y-104971993D01*
X208203137Y-105210860D01*
X208361477Y-105285164D01*
X208258957Y-105327629D01*
X208032114Y-105479201D01*
X207839201Y-105672114D01*
X207687629Y-105898957D01*
X207583225Y-106151011D01*
X207530000Y-106418589D01*
X207530000Y-106691411D01*
X207583225Y-106958989D01*
X207687629Y-107211043D01*
X207839201Y-107437886D01*
X207971315Y-107570000D01*
X207839201Y-107702114D01*
X207687629Y-107928957D01*
X207583225Y-108181011D01*
X207530000Y-108448589D01*
X207530000Y-108721411D01*
X207583225Y-108988989D01*
X207687629Y-109241043D01*
X207839201Y-109467886D01*
X208032114Y-109660799D01*
X208148483Y-109738555D01*
X208040518Y-109749188D01*
X207920820Y-109785498D01*
X207810506Y-109844463D01*
X207713815Y-109923815D01*
X207634463Y-110020506D01*
X207575498Y-110130820D01*
X207539188Y-110250518D01*
X207526928Y-110375000D01*
X202172722Y-110375000D01*
X202177817Y-110370819D01*
X202288411Y-110236061D01*
X202344663Y-110130820D01*
X202370589Y-110082316D01*
X202421195Y-109915492D01*
X202426680Y-109859799D01*
X202434000Y-109785479D01*
X202434000Y-109785471D01*
X202438281Y-109742002D01*
X202434000Y-109698533D01*
X202434000Y-108753469D01*
X202438281Y-108710000D01*
X202434000Y-108666531D01*
X202434000Y-108666523D01*
X202421195Y-108536510D01*
X202394524Y-108448589D01*
X202370589Y-108369686D01*
X202288411Y-108215941D01*
X202205532Y-108114953D01*
X202205530Y-108114951D01*
X202177817Y-108081183D01*
X202144050Y-108053471D01*
X201136896Y-107046318D01*
X201215537Y-106950494D01*
X201274502Y-106840180D01*
X201310812Y-106720482D01*
X201323072Y-106596000D01*
X201323072Y-105596000D01*
X201310812Y-105471518D01*
X201274502Y-105351820D01*
X201215537Y-105241506D01*
X201136185Y-105144815D01*
X201039494Y-105065463D01*
X200929180Y-105006498D01*
X200809482Y-104970188D01*
X200685000Y-104957928D01*
X199185000Y-104957928D01*
X199134000Y-104962951D01*
X199134000Y-104087492D01*
X207525188Y-104087492D01*
X207566035Y-104357238D01*
X207658723Y-104613832D01*
X207719140Y-104726863D01*
X207958007Y-104792388D01*
X208735395Y-104015000D01*
X209094605Y-104015000D01*
X209871993Y-104792388D01*
X210110860Y-104726863D01*
X210226760Y-104479884D01*
X210292250Y-104215040D01*
X210304812Y-103942508D01*
X210263965Y-103672762D01*
X210171277Y-103416168D01*
X210110860Y-103303137D01*
X209871993Y-103237612D01*
X209094605Y-104015000D01*
X208735395Y-104015000D01*
X207958007Y-103237612D01*
X207719140Y-103303137D01*
X207603240Y-103550116D01*
X207537750Y-103814960D01*
X207525188Y-104087492D01*
X199134000Y-104087492D01*
X199134000Y-103412801D01*
X199488794Y-103058007D01*
X208137612Y-103058007D01*
X208915000Y-103835395D01*
X209692388Y-103058007D01*
X209626863Y-102819140D01*
X209379884Y-102703240D01*
X209115040Y-102637750D01*
X208842508Y-102625188D01*
X208572762Y-102666035D01*
X208316168Y-102758723D01*
X208203137Y-102819140D01*
X208137612Y-103058007D01*
X199488794Y-103058007D01*
X200446004Y-102100798D01*
X200475001Y-102077001D01*
X200569974Y-101961276D01*
X200589326Y-101925072D01*
X200685000Y-101925072D01*
X200809482Y-101912812D01*
X200929180Y-101876502D01*
X201039494Y-101817537D01*
X201136185Y-101738185D01*
X201200863Y-101659374D01*
X202304231Y-101659374D01*
X202604411Y-102097828D01*
X203183356Y-102408296D01*
X203811746Y-102599852D01*
X204465431Y-102665134D01*
X205119293Y-102601634D01*
X205599587Y-102456653D01*
X210272952Y-102456653D01*
X210428962Y-102772214D01*
X210803745Y-102963020D01*
X211208551Y-103077044D01*
X211627824Y-103109902D01*
X212045451Y-103060334D01*
X212445383Y-102930243D01*
X212741038Y-102772214D01*
X212897048Y-102456653D01*
X211585000Y-101144605D01*
X210272952Y-102456653D01*
X205599587Y-102456653D01*
X205748203Y-102411792D01*
X206327992Y-102102904D01*
X206335589Y-102097828D01*
X206635769Y-101659374D01*
X204470000Y-99493605D01*
X202304231Y-101659374D01*
X201200863Y-101659374D01*
X201215537Y-101641494D01*
X201274502Y-101531180D01*
X201310812Y-101411482D01*
X201323072Y-101287000D01*
X201323072Y-100429425D01*
X201372208Y-100592203D01*
X201681096Y-101171992D01*
X201686172Y-101179589D01*
X202124626Y-101479769D01*
X204290395Y-99314000D01*
X204649605Y-99314000D01*
X206815374Y-101479769D01*
X207253828Y-101179589D01*
X207345939Y-101007824D01*
X209440098Y-101007824D01*
X209489666Y-101425451D01*
X209619757Y-101825383D01*
X209777786Y-102121038D01*
X210093347Y-102277048D01*
X211405395Y-100965000D01*
X210093347Y-99652952D01*
X209777786Y-99808962D01*
X209586980Y-100183745D01*
X209472956Y-100588551D01*
X209440098Y-101007824D01*
X207345939Y-101007824D01*
X207564296Y-100600644D01*
X207755852Y-99972254D01*
X207821134Y-99318569D01*
X207757634Y-98664707D01*
X207567792Y-98035797D01*
X207258904Y-97456008D01*
X207253828Y-97448411D01*
X206815374Y-97148231D01*
X204649605Y-99314000D01*
X204290395Y-99314000D01*
X202124626Y-97148231D01*
X201686172Y-97448411D01*
X201375704Y-98027356D01*
X201184148Y-98655746D01*
X201118866Y-99309431D01*
X201174523Y-99882530D01*
X201136185Y-99835815D01*
X201039494Y-99756463D01*
X200929180Y-99697498D01*
X200809482Y-99661188D01*
X200685000Y-99648928D01*
X199185000Y-99648928D01*
X199060518Y-99661188D01*
X198940820Y-99697498D01*
X198830506Y-99756463D01*
X198733815Y-99835815D01*
X198654463Y-99932506D01*
X198595498Y-100042820D01*
X198559188Y-100162518D01*
X198546928Y-100287000D01*
X198546928Y-101287000D01*
X198559188Y-101411482D01*
X198595498Y-101531180D01*
X198654463Y-101641494D01*
X198700098Y-101697101D01*
X197862998Y-102534201D01*
X197834000Y-102557999D01*
X197810202Y-102586997D01*
X197810201Y-102586998D01*
X197739026Y-102673724D01*
X197668454Y-102805754D01*
X197624998Y-102949015D01*
X197610324Y-103098000D01*
X197614001Y-103135332D01*
X197614000Y-106947677D01*
X197610324Y-106985000D01*
X197614000Y-107022322D01*
X197614000Y-107022332D01*
X197624997Y-107133985D01*
X197661710Y-107255014D01*
X197668454Y-107277246D01*
X197739026Y-107409276D01*
X197761214Y-107436312D01*
X197833999Y-107525001D01*
X197863003Y-107548804D01*
X198700098Y-108385899D01*
X198654463Y-108441506D01*
X198595498Y-108551820D01*
X198559188Y-108671518D01*
X198546928Y-108796000D01*
X198546928Y-109796000D01*
X198559188Y-109920482D01*
X198595498Y-110040180D01*
X198654463Y-110150494D01*
X198733815Y-110247185D01*
X198830506Y-110326537D01*
X198940820Y-110385502D01*
X199060518Y-110421812D01*
X199185000Y-110434072D01*
X199605352Y-110434072D01*
X198656424Y-111383000D01*
X197909477Y-111383000D01*
X197866000Y-111378718D01*
X197822524Y-111383000D01*
X189400469Y-111383000D01*
X189372000Y-111380196D01*
X189372000Y-110362079D01*
X189415820Y-110385502D01*
X189535518Y-110421812D01*
X189660000Y-110434072D01*
X191160000Y-110434072D01*
X191284482Y-110421812D01*
X191404180Y-110385502D01*
X191514494Y-110326537D01*
X191611185Y-110247185D01*
X191690537Y-110150494D01*
X191749502Y-110040180D01*
X191772634Y-109963923D01*
X191834276Y-109930974D01*
X191950001Y-109836001D01*
X191973804Y-109806997D01*
X191984801Y-109796000D01*
X193646928Y-109796000D01*
X193659188Y-109920482D01*
X193695498Y-110040180D01*
X193754463Y-110150494D01*
X193833815Y-110247185D01*
X193930506Y-110326537D01*
X194040820Y-110385502D01*
X194160518Y-110421812D01*
X194285000Y-110434072D01*
X194749250Y-110431000D01*
X194908000Y-110272250D01*
X194908000Y-109423000D01*
X195162000Y-109423000D01*
X195162000Y-110272250D01*
X195320750Y-110431000D01*
X195785000Y-110434072D01*
X195909482Y-110421812D01*
X196029180Y-110385502D01*
X196139494Y-110326537D01*
X196236185Y-110247185D01*
X196315537Y-110150494D01*
X196374502Y-110040180D01*
X196410812Y-109920482D01*
X196423072Y-109796000D01*
X196420000Y-109581750D01*
X196261250Y-109423000D01*
X195162000Y-109423000D01*
X194908000Y-109423000D01*
X193808750Y-109423000D01*
X193650000Y-109581750D01*
X193646928Y-109796000D01*
X191984801Y-109796000D01*
X192984801Y-108796000D01*
X193646928Y-108796000D01*
X193650000Y-109010250D01*
X193808750Y-109169000D01*
X194908000Y-109169000D01*
X194908000Y-108319750D01*
X195162000Y-108319750D01*
X195162000Y-109169000D01*
X196261250Y-109169000D01*
X196420000Y-109010250D01*
X196423072Y-108796000D01*
X196410812Y-108671518D01*
X196374502Y-108551820D01*
X196315537Y-108441506D01*
X196236185Y-108344815D01*
X196139494Y-108265463D01*
X196029180Y-108206498D01*
X195909482Y-108170188D01*
X195785000Y-108157928D01*
X195320750Y-108161000D01*
X195162000Y-108319750D01*
X194908000Y-108319750D01*
X194749250Y-108161000D01*
X194285000Y-108157928D01*
X194160518Y-108170188D01*
X194040820Y-108206498D01*
X193930506Y-108265463D01*
X193833815Y-108344815D01*
X193754463Y-108441506D01*
X193695498Y-108551820D01*
X193659188Y-108671518D01*
X193646928Y-108796000D01*
X192984801Y-108796000D01*
X194546730Y-107234072D01*
X195785000Y-107234072D01*
X195909482Y-107221812D01*
X196029180Y-107185502D01*
X196139494Y-107126537D01*
X196236185Y-107047185D01*
X196315537Y-106950494D01*
X196374502Y-106840180D01*
X196410812Y-106720482D01*
X196423072Y-106596000D01*
X196423072Y-105596000D01*
X196410812Y-105471518D01*
X196374502Y-105351820D01*
X196315537Y-105241506D01*
X196236185Y-105144815D01*
X196139494Y-105065463D01*
X196029180Y-105006498D01*
X195909482Y-104970188D01*
X195785000Y-104957928D01*
X194285000Y-104957928D01*
X194160518Y-104970188D01*
X194040820Y-105006498D01*
X193975260Y-105041541D01*
X194603802Y-104413000D01*
X194665939Y-104413000D01*
X194865898Y-104373226D01*
X195054256Y-104295205D01*
X195223774Y-104181937D01*
X195367937Y-104037774D01*
X195481205Y-103868256D01*
X195559226Y-103679898D01*
X195599000Y-103479939D01*
X195599000Y-103276061D01*
X195559226Y-103076102D01*
X195481205Y-102887744D01*
X195367937Y-102718226D01*
X195223774Y-102574063D01*
X195054256Y-102460795D01*
X194865898Y-102382774D01*
X194665939Y-102343000D01*
X194462061Y-102343000D01*
X194402789Y-102354790D01*
X194832507Y-101925072D01*
X195785000Y-101925072D01*
X195909482Y-101912812D01*
X196029180Y-101876502D01*
X196139494Y-101817537D01*
X196236185Y-101738185D01*
X196315537Y-101641494D01*
X196374502Y-101531180D01*
X196410812Y-101411482D01*
X196423072Y-101287000D01*
X196423072Y-100287000D01*
X196410812Y-100162518D01*
X196374502Y-100042820D01*
X196315537Y-99932506D01*
X196236185Y-99835815D01*
X196139494Y-99756463D01*
X196029180Y-99697498D01*
X195909482Y-99661188D01*
X195785000Y-99648928D01*
X194285000Y-99648928D01*
X194160518Y-99661188D01*
X194040820Y-99697498D01*
X193930506Y-99756463D01*
X193833815Y-99835815D01*
X193754463Y-99932506D01*
X193695498Y-100042820D01*
X193659188Y-100162518D01*
X193646928Y-100287000D01*
X193646928Y-100607493D01*
X190739500Y-103514921D01*
X187416534Y-100191956D01*
X187388817Y-100158183D01*
X187254059Y-100047589D01*
X187100313Y-99965411D01*
X186933490Y-99914805D01*
X186803477Y-99902000D01*
X186803469Y-99902000D01*
X186762163Y-99897932D01*
X186711185Y-99835815D01*
X186614494Y-99756463D01*
X186504180Y-99697498D01*
X186384482Y-99661188D01*
X186260000Y-99648928D01*
X184760000Y-99648928D01*
X184635518Y-99661188D01*
X184515820Y-99697498D01*
X184405506Y-99756463D01*
X184308815Y-99835815D01*
X184269720Y-99883452D01*
X184326134Y-99318569D01*
X184262634Y-98664707D01*
X184072792Y-98035797D01*
X183763904Y-97456008D01*
X183758828Y-97448411D01*
X183320374Y-97148231D01*
X181154605Y-99314000D01*
X183320374Y-101479769D01*
X183758828Y-101179589D01*
X184069296Y-100600644D01*
X184121928Y-100427987D01*
X184121928Y-101287000D01*
X184134188Y-101411482D01*
X184170498Y-101531180D01*
X184229463Y-101641494D01*
X184308815Y-101738185D01*
X184405506Y-101817537D01*
X184515820Y-101876502D01*
X184635518Y-101912812D01*
X184760000Y-101925072D01*
X186260000Y-101925072D01*
X186384482Y-101912812D01*
X186504180Y-101876502D01*
X186565270Y-101843848D01*
X189525000Y-104803579D01*
X189525000Y-104973379D01*
X189415820Y-105006498D01*
X189305506Y-105065463D01*
X189208815Y-105144815D01*
X189129463Y-105241506D01*
X189070498Y-105351820D01*
X189034188Y-105471518D01*
X189021928Y-105596000D01*
X189021928Y-106596000D01*
X189034188Y-106720482D01*
X189070498Y-106840180D01*
X189129463Y-106950494D01*
X189208103Y-107046318D01*
X187891951Y-108362471D01*
X187858184Y-108390183D01*
X187830471Y-108423951D01*
X187830468Y-108423954D01*
X187747590Y-108524941D01*
X187704000Y-108606493D01*
X187704000Y-106567325D01*
X187707676Y-106530000D01*
X187704000Y-106492675D01*
X187704000Y-106492667D01*
X187693003Y-106381014D01*
X187649546Y-106237753D01*
X187578974Y-106105724D01*
X187484001Y-105989999D01*
X187454998Y-105966197D01*
X187073804Y-105585003D01*
X187050001Y-105555999D01*
X186934276Y-105461026D01*
X186872634Y-105428077D01*
X186849502Y-105351820D01*
X186790537Y-105241506D01*
X186711185Y-105144815D01*
X186614494Y-105065463D01*
X186504180Y-105006498D01*
X186384482Y-104970188D01*
X186260000Y-104957928D01*
X184760000Y-104957928D01*
X184635518Y-104970188D01*
X184515820Y-105006498D01*
X184405506Y-105065463D01*
X184308815Y-105144815D01*
X184229463Y-105241506D01*
X184170498Y-105351820D01*
X184134188Y-105471518D01*
X184121928Y-105596000D01*
X184121928Y-106596000D01*
X184134188Y-106720482D01*
X184170498Y-106840180D01*
X184229463Y-106950494D01*
X184308815Y-107047185D01*
X184405506Y-107126537D01*
X184515820Y-107185502D01*
X184635518Y-107221812D01*
X184760000Y-107234072D01*
X186184000Y-107234072D01*
X186184000Y-108158431D01*
X185795750Y-108161000D01*
X185637000Y-108319750D01*
X185637000Y-109169000D01*
X185657000Y-109169000D01*
X185657000Y-109423000D01*
X185637000Y-109423000D01*
X185637000Y-110272250D01*
X185795750Y-110431000D01*
X186184001Y-110433569D01*
X186184001Y-112233197D01*
X184999003Y-113418196D01*
X184969999Y-113441999D01*
X184914871Y-113509174D01*
X184875026Y-113557724D01*
X184855674Y-113593928D01*
X184760000Y-113593928D01*
X184635518Y-113606188D01*
X184515820Y-113642498D01*
X184405506Y-113701463D01*
X184308815Y-113780815D01*
X184229463Y-113877506D01*
X184170498Y-113987820D01*
X184134188Y-114107518D01*
X184121928Y-114232000D01*
X184121928Y-115089575D01*
X184072792Y-114926797D01*
X183763904Y-114347008D01*
X183758828Y-114339411D01*
X183320374Y-114039231D01*
X181154605Y-116205000D01*
X183320374Y-118370769D01*
X183758828Y-118070589D01*
X184069296Y-117491644D01*
X184260852Y-116863254D01*
X184326134Y-116209569D01*
X184270477Y-115636470D01*
X184308815Y-115683185D01*
X184405506Y-115762537D01*
X184515820Y-115821502D01*
X184635518Y-115857812D01*
X184760000Y-115870072D01*
X186260000Y-115870072D01*
X186384482Y-115857812D01*
X186504180Y-115821502D01*
X186614494Y-115762537D01*
X186711185Y-115683185D01*
X186790537Y-115586494D01*
X186849502Y-115476180D01*
X186885812Y-115356482D01*
X186898072Y-115232000D01*
X186898072Y-114232000D01*
X186885812Y-114107518D01*
X186849502Y-113987820D01*
X186790537Y-113877506D01*
X186744902Y-113821899D01*
X187455003Y-113111799D01*
X187484001Y-113088001D01*
X187578974Y-112972276D01*
X187602000Y-112929198D01*
X187602000Y-113094531D01*
X187597719Y-113138000D01*
X187602000Y-113181469D01*
X187602000Y-113181476D01*
X187602001Y-113181486D01*
X187602000Y-115838421D01*
X186565270Y-116875152D01*
X186504180Y-116842498D01*
X186384482Y-116806188D01*
X186260000Y-116793928D01*
X184760000Y-116793928D01*
X184635518Y-116806188D01*
X184515820Y-116842498D01*
X184405506Y-116901463D01*
X184308815Y-116980815D01*
X184229463Y-117077506D01*
X184170498Y-117187820D01*
X184134188Y-117307518D01*
X184121928Y-117432000D01*
X184121928Y-118432000D01*
X184134188Y-118556482D01*
X184170498Y-118676180D01*
X184193921Y-118720000D01*
X183024637Y-118720000D01*
X183140769Y-118550374D01*
X180975000Y-116384605D01*
X178809231Y-118550374D01*
X178925363Y-118720000D01*
X178460000Y-118720000D01*
X178460000Y-118254637D01*
X178629626Y-118370769D01*
X180795395Y-116205000D01*
X178629626Y-114039231D01*
X178460000Y-114155363D01*
X178460000Y-113859626D01*
X178809231Y-113859626D01*
X180975000Y-116025395D01*
X183140769Y-113859626D01*
X182840589Y-113421172D01*
X182261644Y-113110704D01*
X181633254Y-112919148D01*
X180979569Y-112853866D01*
X180325707Y-112917366D01*
X179696797Y-113107208D01*
X179117008Y-113416096D01*
X179109411Y-113421172D01*
X178809231Y-113859626D01*
X178460000Y-113859626D01*
X178460000Y-112478903D01*
X178480412Y-112506269D01*
X178696645Y-112701178D01*
X178946748Y-112850157D01*
X179221109Y-112947481D01*
X179451000Y-112826814D01*
X179451000Y-111633000D01*
X179705000Y-111633000D01*
X179705000Y-112826814D01*
X179934891Y-112947481D01*
X180209252Y-112850157D01*
X180459355Y-112701178D01*
X180675588Y-112506269D01*
X180849641Y-112272920D01*
X180974825Y-112010099D01*
X181019476Y-111862890D01*
X180898155Y-111633000D01*
X179705000Y-111633000D01*
X179451000Y-111633000D01*
X179431000Y-111633000D01*
X179431000Y-111379000D01*
X179451000Y-111379000D01*
X179451000Y-111359000D01*
X179705000Y-111359000D01*
X179705000Y-111379000D01*
X180898155Y-111379000D01*
X181019476Y-111149110D01*
X180974825Y-111001901D01*
X180849641Y-110739080D01*
X180675588Y-110505731D01*
X180459355Y-110310822D01*
X180342477Y-110241201D01*
X180407014Y-110206706D01*
X180633134Y-110021134D01*
X180817896Y-109796000D01*
X184121928Y-109796000D01*
X184134188Y-109920482D01*
X184170498Y-110040180D01*
X184229463Y-110150494D01*
X184308815Y-110247185D01*
X184405506Y-110326537D01*
X184515820Y-110385502D01*
X184635518Y-110421812D01*
X184760000Y-110434072D01*
X185224250Y-110431000D01*
X185383000Y-110272250D01*
X185383000Y-109423000D01*
X184283750Y-109423000D01*
X184125000Y-109581750D01*
X184121928Y-109796000D01*
X180817896Y-109796000D01*
X180818706Y-109795014D01*
X180956599Y-109537034D01*
X181041513Y-109257111D01*
X181070185Y-108966000D01*
X181053442Y-108796000D01*
X184121928Y-108796000D01*
X184125000Y-109010250D01*
X184283750Y-109169000D01*
X185383000Y-109169000D01*
X185383000Y-108319750D01*
X185224250Y-108161000D01*
X184760000Y-108157928D01*
X184635518Y-108170188D01*
X184515820Y-108206498D01*
X184405506Y-108265463D01*
X184308815Y-108344815D01*
X184229463Y-108441506D01*
X184170498Y-108551820D01*
X184134188Y-108671518D01*
X184121928Y-108796000D01*
X181053442Y-108796000D01*
X181041513Y-108674889D01*
X180956599Y-108394966D01*
X180818706Y-108136986D01*
X180633134Y-107910866D01*
X180407014Y-107725294D01*
X180352209Y-107696000D01*
X180407014Y-107666706D01*
X180633134Y-107481134D01*
X180818706Y-107255014D01*
X180956599Y-106997034D01*
X181041513Y-106717111D01*
X181070185Y-106426000D01*
X181041513Y-106134889D01*
X180956599Y-105854966D01*
X180818706Y-105596986D01*
X180633134Y-105370866D01*
X180603313Y-105346393D01*
X180672180Y-105325502D01*
X180782494Y-105266537D01*
X180879185Y-105187185D01*
X180958537Y-105090494D01*
X181017502Y-104980180D01*
X181053812Y-104860482D01*
X181066072Y-104736000D01*
X181066072Y-103036000D01*
X181053812Y-102911518D01*
X181017502Y-102791820D01*
X180958537Y-102681506D01*
X180942840Y-102662379D01*
X180970431Y-102665134D01*
X181624293Y-102601634D01*
X182253203Y-102411792D01*
X182832992Y-102102904D01*
X182840589Y-102097828D01*
X183140769Y-101659374D01*
X180975000Y-99493605D01*
X178809231Y-101659374D01*
X179109411Y-102097828D01*
X179669022Y-102397928D01*
X178728000Y-102397928D01*
X178603518Y-102410188D01*
X178483820Y-102446498D01*
X178460000Y-102459230D01*
X178460000Y-101363637D01*
X178629626Y-101479769D01*
X180795395Y-99314000D01*
X178629626Y-97148231D01*
X178460000Y-97264363D01*
X178460000Y-96799000D01*
X178925363Y-96799000D01*
X178809231Y-96968626D01*
M02*
